<svg width="355" height="140" viewBox="0 0 355 140" fill="none" xmlns="http://www.w3.org/2000/svg">
<g filter="url(#filter0_d)">
<path d="M49.5175 28.3688C67.3904 17.263 86.8856 24.3883 96.0925 33.6971C118.278 34.1407 228.219 39.0254 228.219 39.0254L85.2703 39.9125C85.2703 39.9125 77.1519 28.3688 49.5175 28.3688Z" fill="#878A8C"/>
<path d="M83.6478 101.668C105.306 103.442 110.464 95.8904 118.312 86.5645C137.218 86.121 228.24 81.35 228.24 81.35L106.505 80.4629C106.505 80.4629 103.143 98.9896 83.6478 101.668Z" fill="#878A8C"/>
<path d="M76.0632 19.9255C47.0076 13.3007 29.4675 43.9738 43.5758 72.3382C60.3603 106.099 99.8915 114.76 115.054 96.324L121.806 102.579C122.351 103.084 122.673 103.724 122.719 104.396C122.766 105.069 122.534 105.735 122.063 106.287L117.986 111.075C117.748 111.353 117.443 111.589 117.09 111.768C116.737 111.947 116.343 112.066 115.933 112.116C115.523 112.167 115.104 112.148 114.703 112.062C114.301 111.976 113.925 111.824 113.598 111.615L106.367 106.986C104.889 108.714 103.054 110.217 100.945 111.427L102.672 119.201C102.795 119.765 102.678 120.347 102.339 120.848C102.001 121.349 101.462 121.74 100.814 121.953L94.9483 123.881C94.2151 124.121 93.4 124.132 92.6576 123.912C91.9152 123.692 91.297 123.256 90.9203 122.687L86.8438 116.517C83.64 116.984 80.37 117.065 77.1378 116.756L76.4445 122.482C76.397 122.877 76.2471 123.26 76.0048 123.604C75.7626 123.948 75.4336 124.246 75.0399 124.477C74.6461 124.709 74.1967 124.869 73.7216 124.946C73.2464 125.024 72.7566 125.017 72.2848 124.927L64.7141 123.494C63.9194 123.343 63.2029 122.99 62.6666 122.486C62.1302 121.982 61.8011 121.351 61.7261 120.685L60.8664 112.934C57.4519 111.805 54.2839 110.229 51.4862 108.266L46.7996 112.872C46.5267 113.14 46.1888 113.358 45.8073 113.513C45.4258 113.668 45.0091 113.756 44.5838 113.772C44.1586 113.787 43.734 113.73 43.3372 113.603C42.9405 113.477 42.5802 113.284 42.2794 113.037L35.9497 107.845C35.3065 107.317 34.8495 106.656 34.6273 105.932C34.4052 105.208 34.4261 104.448 34.6879 103.734L37.0728 97.2168C37.0728 97.2168 32.4139 92.8097 30.5698 88.3287L23.3735 88.9883C22.6373 89.0522 21.8955 88.921 21.2568 88.614C20.618 88.307 20.1159 87.8404 19.8239 87.2824L15.3106 78.6616C15.0349 78.1291 14.9883 77.5356 15.1786 76.9785C15.3688 76.4214 15.7846 75.9341 16.3574 75.5966L21.9037 72.3382C20.8831 68.5321 20.1606 64.6764 19.7407 60.7945L11.5668 57.0642C11.0918 56.8466 10.6961 56.529 10.4207 56.1442C10.1453 55.7593 10 55.3211 10 54.8749V43.9169C10.0012 43.704 10.0604 43.4939 10.1734 43.3021C10.2864 43.1104 10.4503 42.9418 10.6531 42.8088C10.8558 42.6757 11.0923 42.5816 11.3452 42.5332C11.5981 42.4849 11.8609 42.4836 12.1145 42.5294L20.3022 44.0193C20.7524 40.8934 21.5035 37.8017 22.5485 34.773L15.3938 26.4934C15.075 26.1234 14.8891 25.6874 14.8572 25.2351C14.8253 24.7827 14.9488 24.3321 15.2135 23.9345L19.7892 17.0481C19.9118 16.8629 20.0845 16.7031 20.2939 16.5811C20.5034 16.459 20.7441 16.3779 20.9977 16.3438C21.2513 16.3098 21.511 16.3238 21.7569 16.3848C22.0029 16.4457 22.2286 16.552 22.4168 16.6955L30.9372 23.1952C32.6022 21.4323 34.6935 19.9706 37.0798 18.9019L34.4037 8.77986C34.3286 8.49597 34.323 8.20269 34.3872 7.91701C34.4513 7.63133 34.584 7.35893 34.7775 7.11562C34.9709 6.8723 35.2213 6.6629 35.5142 6.49956C35.8071 6.33622 36.1365 6.22218 36.4835 6.16406L43.4164 5.02675C43.7618 4.96868 44.121 5.00575 44.4382 5.13222C44.7553 5.25868 45.0127 5.46748 45.1704 5.7262L51.1188 15.4843C54.527 15.2523 57.9578 15.4015 61.317 15.9278L61.8162 8.60927C61.8373 8.38922 61.923 8.17662 62.0658 7.98955C62.2086 7.80247 62.4044 7.64647 62.6366 7.5348C62.8687 7.42313 63.1303 7.3591 63.399 7.34816C63.6678 7.33722 63.9358 7.37969 64.1803 7.47196L76.0286 11.9586L76.0632 19.9255Z" fill="#F29F05"/>
<path d="M88.8263 68.2655H99.2256C99.5014 68.257 99.7719 68.3296 99.9882 68.4702C100.094 68.5531 100.175 68.6544 100.227 68.7666C100.279 68.8787 100.299 68.999 100.286 69.1185V73.5255C100.284 73.7709 100.173 74.0072 99.9744 74.1908C99.8822 74.2855 99.7651 74.3618 99.6318 74.414C99.4985 74.4662 99.3525 74.4929 99.2048 74.4922H77.9418C77.7903 74.4903 77.6408 74.4631 77.5026 74.4122C77.3643 74.3614 77.2401 74.288 77.1375 74.1965C77.0214 74.1128 76.9284 74.0095 76.865 73.8937C76.8017 73.778 76.7693 73.6524 76.7701 73.5255V70.6823C76.7687 70.5033 76.8236 70.327 76.9296 70.1705L90.9409 56.4489C91.2577 56.2008 91.5058 55.8998 91.6685 55.5662C91.8312 55.2327 91.9046 54.8743 91.8837 54.5154C91.8942 54.1224 91.792 53.7329 91.5856 53.3781C91.394 53.0633 91.1276 52.7829 90.8022 52.5536C90.4779 52.3358 90.1095 52.1664 89.7137 52.0532C89.3216 51.9406 88.9091 51.8829 88.4936 51.8826C88.0443 51.8816 87.6 51.9591 87.1902 52.11C86.7799 52.2692 86.4105 52.4911 86.1017 52.764C85.7927 53.0237 85.5417 53.3259 85.3599 53.6568C85.1804 53.9801 85.0859 54.3308 85.0826 54.686V55.7267C85.0733 55.9519 84.9678 56.1673 84.7845 56.3351C84.6802 56.4358 84.549 56.5153 84.4011 56.5676C84.2532 56.6199 84.0926 56.6435 83.9317 56.6365H78.025C77.8783 56.646 77.7309 56.6262 77.5957 56.5786C77.4604 56.5311 77.3413 56.4573 77.2485 56.3636C77.0996 56.1995 77.0216 55.9994 77.0266 55.7949V54.8396C77.0064 53.626 77.2937 52.4222 77.8701 51.3043C78.4465 50.1865 79.2995 49.179 80.3752 48.3456C81.4171 47.5552 82.6306 46.9322 83.9525 46.5088C85.35 46.0574 86.8392 45.8278 88.341 45.8321C89.8882 45.8273 91.4254 46.0349 92.889 46.4463C94.2827 46.8406 95.5771 47.4399 96.709 48.2148C97.8064 48.9651 98.7012 49.8947 99.3365 50.9443C100.005 52.058 100.342 53.2857 100.321 54.5268C100.325 55.1758 100.223 55.8224 100.016 56.4489C99.8236 57.038 99.5588 57.6096 99.2256 58.1548C98.895 58.6572 98.5148 59.1365 98.0886 59.5878C97.6657 60.0484 97.229 60.4863 96.7645 60.9014L88.8263 68.2655Z" fill="#333333"/>
<path d="M100.321 60.4633C100.317 59.1647 100.527 57.8717 100.945 56.6192C101.346 55.4052 101.943 54.2406 102.72 53.1561C103.488 52.0848 104.42 51.0987 105.493 50.2219C106.554 49.3386 107.752 48.5738 109.057 47.9473C110.377 47.324 111.789 46.8406 113.258 46.5086C116.327 45.8109 119.569 45.8109 122.638 46.5086C124.116 46.8439 125.534 47.3332 126.86 47.9643C128.166 48.5922 129.366 49.3568 130.431 50.2389C131.505 51.1154 132.437 52.1016 133.204 53.1732C133.972 54.2611 134.569 55.4248 134.979 56.6363C135.829 59.1554 135.829 61.8167 134.979 64.3358C134.568 65.5418 133.972 66.6999 133.204 67.7819C132.435 68.8454 131.503 69.8238 130.431 70.6934C129.362 71.5721 128.163 72.3364 126.86 72.968C125.537 73.6038 124.118 74.0933 122.638 74.4237C119.633 75.1079 116.46 75.124 113.445 74.4704C110.429 73.8169 107.68 72.5172 105.479 70.7048C104.408 69.8348 103.476 68.8565 102.706 67.7932C101.93 66.7148 101.333 65.5558 100.931 64.3472C100.513 63.0814 100.308 61.7747 100.321 60.4633ZM109.043 60.4633C109.038 61.4784 109.274 62.4845 109.736 63.426C110.172 64.3158 110.812 65.1286 111.622 65.82C112.452 66.5183 113.445 67.0732 114.541 67.4521C115.637 67.831 116.814 68.0262 118.004 68.0262C119.193 68.0262 120.37 67.831 121.466 67.4521C122.562 67.0732 123.555 66.5183 124.385 65.82C126.064 64.3785 126.992 62.4569 126.971 60.4633C126.998 58.4497 126.074 56.5056 124.392 55.0384C123.581 54.3447 122.61 53.7899 121.536 53.4063C120.416 53.0137 119.211 52.8113 117.993 52.8113C116.775 52.8113 115.57 53.0137 114.45 53.4063C113.381 53.7914 112.415 54.346 111.608 55.0384C110.796 55.7393 110.156 56.5617 109.722 57.4608C109.264 58.411 109.034 59.4246 109.043 60.4463V60.4633Z" fill="#333333"/>
<path d="M147.43 68.2653H157.829C158.103 68.2561 158.372 68.3289 158.585 68.47C158.692 68.5524 158.775 68.6534 158.828 68.7656C158.88 68.8778 158.902 68.9984 158.89 69.1183V73.5253C158.887 73.7707 158.776 74.007 158.578 74.1906C158.485 74.2857 158.366 74.3623 158.232 74.4145C158.097 74.4667 157.95 74.4932 157.802 74.492H136.531C136.38 74.4901 136.231 74.4629 136.092 74.412C135.954 74.3612 135.83 74.2878 135.727 74.1963C135.61 74.1128 135.516 74.0098 135.452 73.894C135.387 73.7783 135.353 73.6526 135.353 73.5253V70.6821C135.354 70.5026 135.411 70.3263 135.519 70.1703L149.524 56.4487C149.843 56.2018 150.093 55.9011 150.257 55.5674C150.421 55.2336 150.495 54.8747 150.473 54.5153C150.486 54.1419 150.394 53.7711 150.206 53.4312C150.017 53.0912 149.736 52.791 149.385 52.5534C149.064 52.3346 148.698 52.165 148.304 52.053C147.911 51.9404 147.499 51.8827 147.083 51.8824C146.632 51.882 146.185 51.9595 145.773 52.1098C145.371 52.2717 145.009 52.4935 144.705 52.7638C144.396 53.0235 144.145 53.3257 143.964 53.6566C143.781 53.979 143.686 54.3303 143.686 54.6858V55.7265C143.677 55.9517 143.571 56.1671 143.388 56.3349C143.284 56.4356 143.153 56.5151 143.005 56.5674C142.857 56.6197 142.696 56.6433 142.535 56.6363H136.622C136.474 56.6503 136.325 56.6342 136.187 56.5896C136.05 56.5449 135.927 56.4731 135.831 56.3804C135.679 56.2178 135.6 56.0167 135.609 55.8118V54.8394C135.591 53.5857 135.898 52.3431 136.511 51.1943C137.085 50.1211 137.917 49.154 138.958 48.351C140.003 47.5545 141.225 46.9291 142.556 46.5086C143.955 46.0625 145.444 45.8386 146.945 45.849C148.49 45.8438 150.025 46.0514 151.486 46.4631C152.879 46.8497 154.174 47.4434 155.306 48.2146C156.407 48.963 157.305 49.893 157.94 50.9441C158.606 52.0583 158.941 53.2859 158.918 54.5266C158.924 55.1754 158.824 55.8219 158.62 56.4487C158.428 57.0388 158.161 57.6106 157.822 58.1546C157.497 58.658 157.118 59.1375 156.692 59.5876C156.269 60.0482 155.826 60.4861 155.368 60.9012L147.43 68.2653Z" fill="#333333"/>
<path d="M158.918 60.4632C158.908 57.8948 159.739 55.3712 161.324 53.1561C162.093 52.0859 163.025 51.0999 164.097 50.2218C165.162 49.3397 166.362 48.575 167.667 47.9472C168.983 47.3243 170.39 46.8409 171.855 46.5085C174.926 45.811 178.171 45.811 181.242 46.5085C182.719 46.8449 184.137 47.3341 185.464 47.9642C186.768 48.5908 187.967 49.3556 189.027 50.2389C190.103 51.114 191.035 52.1004 191.801 53.1731C192.566 54.2622 193.162 55.4256 193.575 56.6362C194.416 59.1564 194.416 61.8156 193.575 64.3358C193.162 65.5409 192.566 66.6986 191.801 67.7818C191.033 68.8464 190.101 69.8251 189.027 70.6933C187.963 71.5732 186.765 72.3377 185.464 72.9679C182.761 74.2636 179.686 74.9464 176.555 74.9464C173.424 74.9464 170.35 74.2636 167.646 72.9679C165.038 71.7111 162.862 69.9303 161.324 67.7932C160.548 66.7138 159.949 65.5551 159.542 64.3472C159.119 63.0819 158.909 61.7752 158.918 60.4632ZM167.646 60.4632C167.642 61.4783 167.877 62.4844 168.34 63.4259C168.773 64.3154 169.411 65.1282 170.219 65.82C171.025 66.5025 171.985 67.0491 173.047 67.4293C174.707 68.0176 176.546 68.1788 178.32 67.8914C180.094 67.6041 181.719 66.8817 182.982 65.82C183.794 65.1287 184.436 64.316 184.875 63.4259C185.344 62.486 185.579 61.4788 185.568 60.4632C185.576 59.4479 185.341 58.4411 184.875 57.5006C184.44 56.5861 183.792 55.7498 182.968 55.0383C182.161 54.3436 181.192 53.7886 180.119 53.4063C178.999 53.0136 177.794 52.8112 176.576 52.8112C175.358 52.8112 174.153 53.0136 173.033 53.4063C171.97 53.7946 171.01 54.349 170.205 55.0383C169.395 55.7395 168.757 56.562 168.326 57.4608C167.868 58.4109 167.637 59.4245 167.646 60.4462V60.4632Z" fill="#333333"/>
<path d="M204.952 48.3168C204.964 48.2796 204.985 48.2448 205.014 48.2145C205.053 48.1762 205.097 48.1419 205.146 48.1121C205.195 48.0818 205.249 48.057 205.306 48.0382C205.361 48.0302 205.417 48.0302 205.472 48.0382H207.926C208.028 48.0372 208.127 48.0677 208.203 48.1235C208.266 48.1666 208.324 48.2142 208.377 48.2657L208.613 48.7149L213.646 59.3601C213.675 59.3983 213.691 59.4427 213.691 59.488C213.691 59.5333 213.675 59.5777 213.646 59.616C213.597 59.6531 213.539 59.6809 213.475 59.6976C213.412 59.7143 213.344 59.7195 213.278 59.7127H210.505C210.387 59.7158 210.27 59.6943 210.165 59.6501C210.077 59.5912 210.012 59.512 209.978 59.4226C209.854 59.1554 209.729 58.8881 209.611 58.6265C209.493 58.3649 209.361 58.092 209.243 57.8247H204.12L203.753 58.6265L203.378 59.4226C203.35 59.5092 203.286 59.5851 203.198 59.6379C203.11 59.6906 203.002 59.717 202.893 59.7127H200.064C199.956 59.7178 199.85 59.6894 199.766 59.633C199.726 59.6053 199.698 59.5666 199.689 59.5238C199.681 59.4811 199.691 59.4371 199.718 59.3999L204.952 48.3168ZM206.699 51.6833C206.574 51.9505 206.449 52.2519 206.325 52.5476C206.2 52.8433 206.082 53.1675 205.957 53.4802C205.832 53.793 205.715 54.1057 205.59 54.4128C205.465 54.7199 205.34 54.9815 205.222 55.2772H208.162L206.699 51.6833Z" fill="#333333"/>
<path d="M217.778 55.0385C217.765 55.3754 217.831 55.7112 217.972 56.028C218.085 56.276 218.263 56.5011 218.492 56.6876C218.704 56.8569 218.96 56.9851 219.241 57.0629C219.527 57.1421 219.826 57.1824 220.128 57.1823C220.439 57.1838 220.747 57.1375 221.036 57.0459C221.316 56.9514 221.571 56.8122 221.785 56.6364C222.01 56.4417 222.185 56.2115 222.298 55.9597C222.429 55.6646 222.492 55.3524 222.485 55.0385V48.3568C222.483 48.3116 222.492 48.2665 222.513 48.2243C222.533 48.1822 222.564 48.1441 222.603 48.1123C222.644 48.0777 222.694 48.0506 222.749 48.033C222.804 48.0153 222.863 48.0075 222.922 48.01H225.695C225.759 48.0068 225.823 48.0148 225.883 48.0334C225.942 48.052 225.997 48.0809 226.042 48.118C226.081 48.1488 226.113 48.1859 226.134 48.2269C226.156 48.268 226.167 48.3122 226.167 48.3568V54.9873C226.195 55.7768 226.025 56.5626 225.667 57.2961C225.379 57.8776 224.925 58.3943 224.343 58.803C223.779 59.1881 223.119 59.4675 222.409 59.6219C221.659 59.7881 220.884 59.8704 220.107 59.8664C219.327 59.869 218.55 59.7829 217.799 59.6105C217.088 59.4487 216.426 59.1658 215.857 58.7802C215.279 58.367 214.826 57.8492 214.533 57.2676C214.181 56.545 214.014 55.7709 214.041 54.993V48.3568C214.039 48.2684 214.079 48.1828 214.152 48.118C214.183 48.0835 214.224 48.0557 214.271 48.0369C214.318 48.0181 214.37 48.0088 214.422 48.01H217.293C217.403 48.016 217.508 48.052 217.591 48.1123C217.64 48.1393 217.68 48.1757 217.708 48.2183C217.735 48.2609 217.75 48.3085 217.75 48.3568L217.778 55.0385Z" fill="#333333"/>
<path d="M226.756 48.3567C226.752 48.3095 226.762 48.2622 226.785 48.2187C226.808 48.1752 226.843 48.1368 226.887 48.1065C226.975 48.0424 227.089 48.0079 227.206 48.0098H237.523C237.633 48.0094 237.74 48.0394 237.828 48.0951C237.874 48.1276 237.911 48.1677 237.938 48.2127C237.964 48.2578 237.978 48.3068 237.98 48.3567V50.3072C237.977 50.4061 237.935 50.5016 237.862 50.5802C237.822 50.6216 237.77 50.6545 237.711 50.6763C237.652 50.698 237.587 50.708 237.523 50.7053H234.216V59.3147C234.216 59.4101 234.172 59.502 234.091 59.5706C234.05 59.6084 234 59.6382 233.944 59.6579C233.887 59.6776 233.826 59.6866 233.765 59.6843H230.957C230.841 59.6828 230.73 59.6464 230.645 59.582C230.601 59.5478 230.565 59.5064 230.541 59.4604C230.517 59.4143 230.506 59.3647 230.506 59.3147V50.7053H227.206C227.148 50.7067 227.089 50.6984 227.034 50.6808C226.979 50.6632 226.929 50.6367 226.887 50.6029C226.84 50.5646 226.804 50.5183 226.781 50.4671C226.759 50.416 226.75 50.3614 226.756 50.3072V48.3567Z" fill="#333333"/>
<path d="M237.204 53.8614C237.204 52.7928 237.548 51.7433 238.202 50.8191C238.521 50.3747 238.905 49.9641 239.346 49.5965C239.801 49.2317 240.311 48.9164 240.864 48.6582C241.416 48.3985 242.005 48.196 242.618 48.0554C243.893 47.7673 245.239 47.7673 246.514 48.0554C247.128 48.195 247.717 48.3976 248.268 48.6582C248.811 48.9183 249.312 49.2335 249.759 49.5965C250.2 49.9641 250.584 50.3747 250.903 50.8191C251.221 51.2712 251.468 51.7546 251.638 52.2578C251.998 53.3045 251.998 54.4126 251.638 55.4593C251.471 55.9614 251.224 56.4432 250.903 56.8923C250.586 57.3341 250.201 57.7411 249.759 58.1035C249.3 58.4604 248.787 58.7681 248.234 59.0191C247.388 59.4227 246.453 59.6839 245.483 59.7874C244.512 59.8909 243.527 59.8346 242.583 59.6218C240.741 59.2078 239.169 58.2203 238.202 56.8696C237.878 56.4217 237.631 55.9396 237.467 55.4365C237.294 54.9235 237.205 54.3937 237.204 53.8614ZM240.913 53.8614C240.909 54.2792 241 54.694 241.183 55.084C241.354 55.448 241.608 55.7819 241.932 56.0678C242.446 56.5049 243.109 56.8036 243.835 56.9245C244.56 57.0453 245.313 56.9825 245.994 56.7445C246.428 56.5929 246.818 56.3681 247.138 56.0848C247.467 55.8008 247.723 55.4665 247.894 55.101C248.245 54.3153 248.245 53.4529 247.894 52.6672C247.73 52.2822 247.473 51.9282 247.138 51.6266C246.817 51.3411 246.428 51.1128 245.994 50.9556C245.316 50.706 244.56 50.6365 243.832 50.7569C243.103 50.8772 242.439 51.1813 241.932 51.6266C241.608 51.9166 241.354 52.2542 241.183 52.6217C240.999 53.0135 240.907 53.4302 240.913 53.85V53.8614Z" fill="#333333"/>
<path d="M200.099 63.4605C200.098 63.4127 200.109 63.3652 200.132 63.3211C200.155 63.277 200.188 63.2373 200.231 63.2046C200.319 63.1421 200.433 63.1095 200.55 63.1136H210.866C210.977 63.1123 211.084 63.1424 211.171 63.1989C211.218 63.2312 211.255 63.2712 211.281 63.3163C211.308 63.3614 211.322 63.4105 211.323 63.4605V65.411C211.323 65.5086 211.281 65.6031 211.206 65.6783C211.167 65.7218 211.116 65.7567 211.056 65.7796C210.997 65.8024 210.931 65.8126 210.866 65.8091H207.587V74.4185C207.588 74.5139 207.543 74.6058 207.462 74.6744C207.421 74.7118 207.371 74.7414 207.314 74.7611C207.258 74.7807 207.197 74.79 207.136 74.7881H204.328C204.271 74.7879 204.215 74.7782 204.162 74.7597C204.11 74.7411 204.062 74.714 204.023 74.68C203.977 74.648 203.94 74.6079 203.914 74.5627C203.889 74.5175 203.877 74.4682 203.878 74.4185V65.8091H200.578C200.519 65.8105 200.46 65.8022 200.405 65.7846C200.351 65.767 200.301 65.7405 200.259 65.7067C200.213 65.6673 200.178 65.6208 200.156 65.57C200.133 65.5191 200.123 65.465 200.127 65.411L200.099 63.4605Z" fill="#333333"/>
<path d="M212.224 63.4775C212.217 63.3798 212.257 63.2837 212.335 63.2102C212.376 63.1767 212.425 63.1508 212.479 63.1341C212.532 63.1174 212.59 63.1104 212.647 63.1135H218.838C219.474 63.1106 220.104 63.2131 220.689 63.4149C221.249 63.6107 221.759 63.8903 222.194 64.2395C222.634 64.5895 222.983 65.0085 223.221 65.4716C223.459 65.9347 223.582 66.4323 223.581 66.9349C223.583 67.2793 223.525 67.6222 223.407 67.9528C223.292 68.2715 223.124 68.5758 222.908 68.8569C222.7 69.1366 222.448 69.3928 222.159 69.6189C221.869 69.8385 221.547 70.0293 221.203 70.1876L223.671 73.9918C223.722 74.0817 223.78 74.1691 223.844 74.2534C223.905 74.3298 223.941 74.418 223.948 74.5093C223.95 74.546 223.942 74.5826 223.924 74.6162C223.906 74.6498 223.879 74.6794 223.844 74.7027C223.767 74.7511 223.671 74.7753 223.574 74.7709H220.287C220.182 74.7717 220.08 74.7437 219.996 74.6913C219.909 74.6409 219.847 74.566 219.823 74.4809L217.493 70.887H215.906V74.4354C215.906 74.6572 215.76 74.7709 215.469 74.7709H212.647C212.536 74.7754 212.427 74.7449 212.342 74.6856C212.301 74.6539 212.269 74.615 212.248 74.5716C212.228 74.5283 212.22 74.4817 212.224 74.4354V63.4775ZM219.733 66.9804C219.731 66.8193 219.696 66.6596 219.629 66.5084C219.557 66.3527 219.456 66.2069 219.331 66.0762C219.199 65.9458 219.042 65.8343 218.866 65.7464C218.685 65.6594 218.485 65.6015 218.277 65.5758H217.771H217.258H215.906V68.4589H217.986H218.284C218.497 68.4403 218.703 68.384 218.887 68.2939C219.06 68.2114 219.212 68.1034 219.338 67.9755C219.458 67.8449 219.552 67.6989 219.615 67.5433C219.695 67.3629 219.735 67.1723 219.733 66.9804Z" fill="#333333"/>
<path d="M228.329 63.4204C228.339 63.3823 228.36 63.3469 228.392 63.318C228.427 63.277 228.472 63.2422 228.524 63.2156C228.571 63.1836 228.625 63.1585 228.683 63.1417C228.738 63.1337 228.794 63.1337 228.849 63.1417H231.304C231.405 63.1412 231.503 63.1693 231.581 63.2213C231.643 63.2675 231.7 63.3169 231.754 63.3692L231.99 63.8184L237.023 74.4636C237.053 74.5019 237.069 74.5462 237.069 74.5915C237.069 74.6369 237.053 74.6812 237.023 74.7195C236.973 74.7554 236.915 74.7824 236.852 74.7991C236.789 74.8157 236.722 74.8215 236.656 74.8162H233.883C233.764 74.8214 233.646 74.7977 233.543 74.7479C233.456 74.6903 233.391 74.6133 233.356 74.5261C233.231 74.2589 233.106 73.9916 232.988 73.73C232.871 73.4685 232.739 73.1955 232.621 72.9282H227.532L227.165 73.73L226.79 74.5261C226.762 74.6127 226.698 74.6886 226.61 74.7414C226.522 74.7941 226.414 74.8205 226.305 74.8162H223.476C223.367 74.8187 223.259 74.7906 223.171 74.7365C223.133 74.7074 223.108 74.6684 223.1 74.626C223.093 74.5836 223.103 74.5403 223.13 74.5034L228.329 63.4204ZM230.077 66.7868C229.952 67.0541 229.827 67.3554 229.702 67.6511C229.577 67.9468 229.46 68.271 229.335 68.5837C229.21 68.8965 229.092 69.2092 228.967 69.5163C228.843 69.8234 228.718 70.085 228.6 70.375H231.539L230.077 66.7868Z" fill="#333333"/>
<path d="M237.529 63.4601C237.526 63.3709 237.563 63.2839 237.633 63.2156C237.674 63.18 237.724 63.1523 237.779 63.1346C237.834 63.1169 237.893 63.1096 237.952 63.1132H241.086C241.183 63.1139 241.278 63.1334 241.363 63.1701C241.468 63.2101 241.555 63.2756 241.613 63.3577C242.426 64.4344 243.231 65.4921 244.026 66.5308C244.83 67.5771 245.634 68.6348 246.452 69.7096V63.4089C246.473 63.3252 246.526 63.2493 246.605 63.1928C246.681 63.1416 246.776 63.1135 246.875 63.1132H249.606C249.73 63.1081 249.851 63.1405 249.946 63.2042C249.99 63.2359 250.025 63.2754 250.048 63.3198C250.071 63.3641 250.081 63.4121 250.078 63.4601V74.4806C250.081 74.5242 250.072 74.5679 250.052 74.6082C250.031 74.6486 250 74.6847 249.96 74.7137C249.87 74.7675 249.759 74.7936 249.648 74.7877H246.591C246.509 74.7886 246.43 74.7642 246.369 74.7194C246.295 74.6597 246.228 74.595 246.168 74.5261C245.315 73.3888 244.476 72.2515 243.644 71.1142C242.812 69.9769 241.973 68.8396 241.114 67.7022V74.4522C241.124 74.5006 241.12 74.5504 241.101 74.5972C241.083 74.6439 241.05 74.6863 241.007 74.7205C240.964 74.7547 240.912 74.7797 240.854 74.7934C240.796 74.8071 240.736 74.8091 240.677 74.799H237.952C237.894 74.8034 237.835 74.797 237.78 74.7803C237.724 74.7636 237.674 74.7369 237.633 74.7024C237.565 74.6356 237.528 74.5508 237.529 74.4635V63.4601Z" fill="#333333"/>
<path d="M253.558 71.0119L253.974 71.3076C254.158 71.4417 254.352 71.5652 254.556 71.6773C254.859 71.8431 255.182 71.9822 255.52 72.0924C255.842 72.1901 256.182 72.2402 256.525 72.2402C256.805 72.2467 257.083 72.216 257.35 72.1492C257.543 72.1025 257.721 72.0209 257.87 71.9104C257.996 71.8159 258.089 71.6964 258.141 71.5635C258.197 71.43 258.225 71.2897 258.224 71.1484C258.222 70.9844 258.143 70.8273 258.002 70.7106C257.836 70.5777 257.649 70.4631 257.447 70.3694C257.224 70.2711 256.992 70.1856 256.754 70.1135L256.137 69.9372C255.445 69.7455 254.772 69.5077 254.127 69.2264C253.6 69.004 253.116 68.7184 252.692 68.3791C252.322 68.0868 252.027 67.7368 251.825 67.3498C251.631 66.9521 251.535 66.527 251.541 66.0988C251.532 65.6382 251.655 65.1823 251.901 64.7681C252.143 64.3684 252.494 64.02 252.927 63.7502C253.408 63.4525 253.951 63.229 254.529 63.0906C255.205 62.9335 255.906 62.8569 256.609 62.8631C257.171 62.8604 257.732 62.9139 258.279 63.0224C258.832 63.1357 259.364 63.3098 259.86 63.5398C260.075 63.6422 260.283 63.7502 260.477 63.864C260.671 63.9777 260.845 64.0857 260.99 64.1881C261.119 64.2781 261.235 64.3792 261.337 64.4895C261.413 64.5566 261.459 64.6427 261.469 64.734C261.469 64.8001 261.448 64.865 261.406 64.9217C261.353 64.992 261.291 65.057 261.219 65.115L259.784 66.4115C259.743 66.4499 259.693 66.4812 259.637 66.5037C259.581 66.5261 259.52 66.5393 259.458 66.5423C259.371 66.5444 259.285 66.5224 259.215 66.4798L258.973 66.3262L258.883 66.2637C258.758 66.1727 258.612 66.0817 258.46 65.9851C258.297 65.8919 258.128 65.8065 257.954 65.7292C257.773 65.654 257.585 65.5912 257.392 65.5415C257.197 65.4919 256.993 65.467 256.789 65.4676C256.589 65.4647 256.389 65.48 256.193 65.5131C256.021 65.5378 255.855 65.5838 255.7 65.6495C255.567 65.7074 255.452 65.7914 255.368 65.8941C255.281 66.006 255.237 66.1368 255.243 66.2694C255.241 66.4041 255.287 66.5364 255.375 66.6504C255.486 66.7715 255.625 66.8739 255.784 66.9518C256.002 67.0585 256.235 67.1443 256.477 67.2077C256.74 67.2873 257.045 67.3783 257.399 67.4692C258.078 67.6588 258.702 67.8483 259.271 68.0379C259.803 68.2193 260.303 68.4605 260.754 68.7544C261.163 69.0193 261.494 69.3553 261.725 69.7382C261.974 70.1735 262.095 70.6507 262.079 71.1314C262.088 71.6756 261.938 72.2137 261.642 72.7008C261.359 73.166 260.957 73.5753 260.463 73.9007C259.934 74.2406 259.336 74.5005 258.695 74.6684C257.986 74.8494 257.247 74.9396 256.505 74.9356C255.766 74.9351 255.033 74.8253 254.342 74.6115C253.634 74.4012 252.967 74.1102 252.359 73.7472C252.128 73.6113 251.91 73.4611 251.707 73.2979L251.291 72.9397C251.178 72.858 251.1 72.7482 251.069 72.6269C251.08 72.567 251.105 72.5094 251.143 72.4577C251.181 72.4059 251.231 72.3609 251.291 72.3255L252.948 71.029C253.04 70.9643 253.154 70.9228 253.274 70.9096C253.34 70.9121 253.404 70.9277 253.461 70.9551C253.494 70.9734 253.526 70.9924 253.558 71.0119Z" fill="#333333"/>
<path d="M263.694 63.4603C263.707 63.3686 263.756 63.2828 263.833 63.2158C263.875 63.1807 263.926 63.1534 263.982 63.1357C264.038 63.1181 264.099 63.1105 264.159 63.1134H267.473C267.58 63.1089 267.686 63.1363 267.772 63.1906C267.857 63.2448 267.916 63.3224 267.937 63.4091L270.544 70.5514L273.164 63.4091C273.194 63.3216 273.259 63.2448 273.348 63.1912C273.437 63.1375 273.546 63.1101 273.657 63.1134H276.915C277.03 63.1153 277.14 63.1495 277.227 63.2101C277.272 63.2413 277.308 63.2795 277.334 63.3225C277.361 63.3655 277.376 63.4123 277.38 63.4603C277.606 65.3027 277.837 67.1319 278.073 68.9478C278.309 70.7637 278.54 72.5947 278.766 74.441V74.4808C278.766 74.6855 278.628 74.7878 278.343 74.7878H275.633C275.573 74.7947 275.513 74.7907 275.456 74.7761C275.399 74.7615 275.347 74.7367 275.303 74.7035C275.26 74.6703 275.225 74.6295 275.203 74.5841C275.181 74.5387 275.171 74.4898 275.175 74.441L274.336 68.3621L272.18 74.4808C272.157 74.5531 272.109 74.6184 272.041 74.6684C272.015 74.7005 271.98 74.7274 271.939 74.7471C271.898 74.7667 271.853 74.7787 271.806 74.7821H269.289C269.194 74.7728 269.107 74.7342 269.046 74.6741C268.971 74.6271 268.921 74.5576 268.908 74.4808L266.745 68.3791L265.913 74.441C265.913 74.6741 265.746 74.7878 265.441 74.7878H262.73C262.674 74.7937 262.616 74.7887 262.562 74.7732C262.509 74.7577 262.46 74.732 262.42 74.6984C262.38 74.6647 262.351 74.6239 262.334 74.5792C262.317 74.5345 262.312 74.4872 262.321 74.441L263.694 63.4603Z" fill="#333333"/>
<path d="M279.917 63.4606C279.914 63.3714 279.951 63.2843 280.021 63.216C280.06 63.1806 280.108 63.1529 280.163 63.1352C280.217 63.1174 280.275 63.1101 280.333 63.1137H283.155C283.266 63.1165 283.372 63.1484 283.46 63.2047C283.511 63.2324 283.554 63.2704 283.583 63.3151C283.612 63.3599 283.627 63.4099 283.626 63.4606V74.4413C283.626 74.6744 283.467 74.7881 283.155 74.7881H280.333C280.276 74.795 280.217 74.7907 280.163 74.7756C280.108 74.7606 280.058 74.7351 280.018 74.7013C279.977 74.6675 279.947 74.6263 279.929 74.5811C279.912 74.536 279.908 74.488 279.917 74.4413V63.4606Z" fill="#333333"/>
<path d="M287.065 71.0121L287.481 71.3078C287.667 71.4392 287.861 71.5625 288.063 71.6774C288.367 71.8445 288.693 71.9837 289.034 72.0925C289.355 72.1907 289.696 72.2408 290.039 72.2404C290.316 72.2469 290.592 72.2161 290.857 72.1494C291.051 72.1054 291.23 72.0234 291.377 71.9105C291.504 71.8164 291.6 71.6969 291.654 71.5637C291.705 71.4292 291.73 71.2893 291.731 71.1486C291.731 71.0671 291.712 70.9864 291.674 70.9112C291.636 70.836 291.579 70.7678 291.509 70.7107C291.344 70.5765 291.157 70.4617 290.954 70.3695C290.73 70.2712 290.499 70.1857 290.261 70.1136L289.651 69.9373C288.955 69.7466 288.281 69.5088 287.633 69.2265C287.106 69.0042 286.623 68.7186 286.198 68.3792C285.826 68.0853 285.532 67.7317 285.334 67.3403C285.136 66.9489 285.038 66.5283 285.047 66.1046C285.033 65.6508 285.151 65.2008 285.393 64.7922C285.634 64.3836 285.991 64.0283 286.434 63.7561C286.914 63.4583 287.457 63.2348 288.035 63.0964C288.712 62.9396 289.412 62.863 290.115 62.869C290.678 62.8662 291.239 62.9197 291.786 63.0282C292.339 63.1415 292.871 63.3156 293.367 63.5457C293.582 63.648 293.79 63.7561 293.984 63.8698C294.178 63.9835 294.351 64.0916 294.497 64.1939C294.625 64.2855 294.744 64.3864 294.85 64.4953C294.922 64.5643 294.965 64.6497 294.975 64.7398C294.976 64.8059 294.954 64.8709 294.913 64.9275C294.86 64.9979 294.797 65.0628 294.725 65.1208L293.297 66.4117C293.213 66.4873 293.096 66.5339 292.971 66.5425C292.882 66.5445 292.795 66.5226 292.722 66.4799L292.479 66.3264L292.396 66.2638C292.264 66.1728 292.126 66.0819 291.966 65.9852C291.806 65.892 291.639 65.8066 291.467 65.7293C291.284 65.6541 291.094 65.5913 290.899 65.5416C290.703 65.4921 290.5 65.4671 290.295 65.4677C290.095 65.4652 289.895 65.4804 289.699 65.5132C289.53 65.537 289.366 65.5831 289.214 65.6497C289.077 65.706 288.96 65.7902 288.874 65.8942C288.788 66.0077 288.743 66.1387 288.743 66.2724C288.743 66.406 288.788 66.537 288.874 66.6505C288.983 66.7718 289.119 66.8742 289.276 66.9519C289.496 67.0562 289.729 67.142 289.97 67.2078C290.233 67.2874 290.545 67.3784 290.892 67.4694C291.585 67.657 292.195 67.8504 292.77 68.038C293.3 68.2209 293.797 68.4619 294.247 68.7545C294.656 69.0208 294.989 69.3564 295.225 69.7383C295.468 70.175 295.587 70.6515 295.571 71.1315C295.579 71.675 295.432 72.2125 295.141 72.701C294.854 73.1652 294.45 73.5742 293.956 73.9008C293.428 74.2425 292.829 74.5026 292.188 74.6685C291.481 74.8491 290.745 74.9393 290.004 74.9358C289.263 74.9343 288.528 74.8245 287.834 74.6116C287.128 74.4001 286.461 74.1092 285.852 73.7473C285.621 73.6131 285.405 73.4628 285.207 73.2981C285.027 73.1502 284.888 73.0308 284.791 72.9398C284.677 72.859 284.601 72.7485 284.576 72.6271C284.585 72.5674 284.608 72.5099 284.645 72.458C284.682 72.4062 284.732 72.3611 284.791 72.3257L286.455 71.0291C286.546 70.9636 286.66 70.922 286.781 70.9097C286.844 70.9125 286.906 70.9281 286.961 70.9552C286.996 70.9735 287.031 70.9924 287.065 71.0121Z" fill="#333333"/>
<path d="M298.199 71.012L298.622 71.3077C298.804 71.4405 298.996 71.5639 299.197 71.6773C299.502 71.8432 299.827 71.9824 300.168 72.0924C300.489 72.1906 300.83 72.2407 301.173 72.2403C301.45 72.2472 301.726 72.2164 301.991 72.1493C302.187 72.1039 302.367 72.0222 302.518 71.9105C302.641 71.8144 302.734 71.6954 302.788 71.5636C302.845 71.4301 302.873 71.2897 302.872 71.1485C302.871 71.0667 302.85 70.9858 302.811 70.9106C302.772 70.8354 302.715 70.7674 302.643 70.7106C302.48 70.5765 302.296 70.4616 302.095 70.3694C301.871 70.2722 301.639 70.1867 301.402 70.1135L300.785 69.9372C300.092 69.7455 299.42 69.5078 298.774 69.2264C298.246 69.0026 297.76 68.7172 297.332 68.3791C296.967 68.0851 296.675 67.7355 296.472 67.3499C296.276 66.9529 296.179 66.5273 296.188 66.0988C296.181 65.6389 296.301 65.1837 296.542 64.7682C296.786 64.3697 297.137 64.0216 297.568 63.7503C298.051 63.4525 298.596 63.229 299.176 63.0907C299.853 62.9332 300.553 62.8565 301.256 62.8632C301.819 62.8604 302.38 62.9139 302.927 63.0224C303.478 63.1348 304.008 63.3089 304.501 63.5399C304.723 63.6422 304.924 63.7503 305.125 63.864C305.326 63.9777 305.485 64.0858 305.631 64.1881C305.763 64.2767 305.882 64.3779 305.984 64.4895C306.058 64.5582 306.104 64.6435 306.116 64.7341C306.117 64.8001 306.095 64.8651 306.054 64.9217C306.001 64.9921 305.938 65.057 305.867 65.1151L304.431 66.4116C304.348 66.4881 304.231 66.535 304.106 66.5424C304.018 66.5445 303.933 66.5224 303.863 66.4798C303.778 66.4331 303.697 66.3818 303.62 66.3263L303.53 66.2637C303.405 66.1727 303.26 66.0818 303.107 65.9851C302.945 65.8919 302.776 65.8065 302.601 65.7292C302.418 65.654 302.228 65.5912 302.033 65.5415C301.838 65.4912 301.634 65.4662 301.429 65.4676C301.232 65.4648 301.034 65.48 300.84 65.5131C300.668 65.5369 300.502 65.583 300.348 65.6496C300.214 65.7075 300.1 65.7915 300.015 65.8941C299.929 66.0061 299.885 66.1369 299.89 66.2694C299.885 66.4045 299.931 66.5376 300.022 66.6504C300.131 66.7717 300.267 66.8741 300.424 66.9518C300.644 67.0561 300.876 67.1419 301.118 67.2077C301.388 67.2873 301.693 67.3783 302.047 67.4693C302.74 67.6569 303.35 67.8503 303.918 68.0379C304.45 68.2208 304.949 68.4618 305.402 68.7544C305.809 69.0209 306.14 69.3566 306.373 69.7382C306.619 70.174 306.738 70.6512 306.719 71.1314C306.731 71.6752 306.583 72.2133 306.289 72.7009C306.007 73.166 305.605 73.5754 305.111 73.9007C304.58 74.2417 303.979 74.5018 303.336 74.6684C302.629 74.8499 301.893 74.9401 301.152 74.9357C300.413 74.9351 299.681 74.8253 298.989 74.6116C298.281 74.4025 297.614 74.1114 297.006 73.7472C296.775 73.6114 296.558 73.4612 296.355 73.298L295.939 72.9397C295.825 72.8581 295.747 72.7482 295.717 72.627C295.727 72.5671 295.752 72.5095 295.79 72.4577C295.828 72.4059 295.879 72.361 295.939 72.3256L297.596 71.029C297.687 70.9635 297.801 70.9219 297.921 70.9096C297.985 70.9124 298.047 70.928 298.102 70.9551C298.135 70.9729 298.167 70.9919 298.199 71.012Z" fill="#333333"/>
<path d="M306.886 68.9652C306.882 68.4236 306.969 67.8841 307.142 67.3616C307.477 66.3571 308.125 65.4415 309.022 64.7047C309.919 63.9678 311.035 63.4352 312.259 63.1592C313.535 62.8634 314.886 62.8634 316.162 63.1592C316.776 63.2963 317.366 63.499 317.916 63.762C318.458 64.0235 318.959 64.3386 319.407 64.7003C319.849 65.0667 320.233 65.4775 320.551 65.9229C320.867 66.3756 321.114 66.8589 321.285 67.3616C321.637 68.4093 321.637 69.5154 321.285 70.5631C320.95 71.5617 320.302 72.4712 319.407 73.2016C318.959 73.5651 318.458 73.8821 317.916 74.1456C316.792 74.6826 315.515 74.9655 314.214 74.9655C312.913 74.9655 311.636 74.6826 310.512 74.1456C309.971 73.8834 309.472 73.5662 309.028 73.2016C308.586 72.8392 308.202 72.4322 307.884 71.9904C307.56 71.544 307.311 71.0639 307.142 70.5631C306.969 70.0424 306.883 69.5049 306.886 68.9652ZM310.595 68.9652C310.59 69.3812 310.682 69.7942 310.865 70.1821C311.035 70.5485 311.289 70.8845 311.614 71.1715C312.134 71.6018 312.798 71.8945 313.522 72.0121C314.246 72.1296 314.997 72.0666 315.677 71.8312C316.109 71.6773 316.498 71.4529 316.821 71.1715C317.15 70.8863 317.407 70.5499 317.576 70.1821C317.928 69.3983 317.928 68.5377 317.576 67.7539C317.407 67.3844 317.151 67.0461 316.821 66.7588C316.499 66.4734 316.11 66.245 315.677 66.0878C314.999 65.8382 314.243 65.7688 313.514 65.8891C312.786 66.0094 312.121 66.3135 311.614 66.7588C311.289 67.0479 311.035 67.3858 310.865 67.7539C310.685 68.1366 310.593 68.5435 310.595 68.9538V68.9652ZM310.976 60.5946C311.102 60.4512 311.248 60.3212 311.413 60.2079C311.576 60.0927 311.756 59.9934 311.947 59.9122C312.136 59.8324 312.336 59.7713 312.543 59.7302C312.742 59.6871 312.947 59.6661 313.153 59.6677C313.278 59.657 313.403 59.657 313.528 59.6677C313.679 59.6929 313.828 59.729 313.971 59.7757C314.131 59.8326 314.311 59.9008 314.505 59.9861C314.745 60.0839 314.976 60.1941 315.198 60.316L315.399 60.4013C315.474 60.4199 315.551 60.4295 315.628 60.4297C315.745 60.4329 315.86 60.4093 315.961 60.3615C316.055 60.3183 316.139 60.2626 316.211 60.1965L316.53 59.8781C316.546 59.8502 316.57 59.8262 316.601 59.8083C316.632 59.7904 316.668 59.7792 316.705 59.7758C316.743 59.7723 316.781 59.7768 316.815 59.7888C316.85 59.8007 316.881 59.8197 316.904 59.844L317.888 60.5491C317.944 60.5918 317.991 60.6417 318.027 60.697C318.027 60.7424 318.027 60.7936 317.965 60.8619L317.68 61.1689C317.433 61.4526 317.108 61.6845 316.731 61.8456C316.362 62.0074 315.95 62.0914 315.531 62.0902C315.274 62.0898 315.018 62.0533 314.776 61.9821C314.515 61.9117 314.266 61.8163 314.034 61.6978L313.507 61.4191L313.306 61.3338C313.23 61.3235 313.153 61.3235 313.077 61.3338C312.961 61.3316 312.847 61.3531 312.744 61.3964C312.651 61.4383 312.569 61.4943 312.502 61.5613L312.203 61.8741C312.182 61.902 312.153 61.9251 312.117 61.941C312.082 61.9569 312.043 61.9652 312.002 61.9651C311.961 61.9702 311.92 61.9677 311.88 61.9579C311.841 61.948 311.804 61.9311 311.774 61.9082L310.789 61.2201C310.758 61.1984 310.73 61.1736 310.706 61.1462C310.681 61.116 310.669 61.0801 310.671 61.0438C310.669 61.0325 310.669 61.021 310.671 61.0097C310.665 60.9872 310.665 60.964 310.671 60.9415C310.671 60.9074 310.727 60.8619 310.775 60.8107C310.836 60.7312 310.903 60.6552 310.976 60.5832V60.5946Z" fill="#333333"/>
<path d="M322.45 63.4773C322.446 63.3801 322.485 63.2851 322.561 63.2101C322.602 63.1775 322.651 63.1521 322.705 63.1355C322.759 63.1188 322.816 63.1113 322.873 63.1134H332.378C332.438 63.1105 332.498 63.1181 332.554 63.1357C332.611 63.1534 332.661 63.1807 332.704 63.2158C332.782 63.2917 332.822 63.3894 332.815 63.4887V65.4335C332.815 65.5268 332.776 65.6172 332.704 65.6894C332.663 65.7298 332.61 65.7616 332.551 65.7824C332.492 65.8031 332.428 65.8122 332.364 65.8088H326.125V67.7593H330.991C331.097 67.756 331.201 67.7798 331.289 67.8275C331.331 67.8566 331.364 67.8935 331.384 67.9351C331.405 67.9767 331.413 68.0217 331.407 68.0664V69.7723C331.404 69.8502 331.367 69.9246 331.303 69.9827C331.265 70.0177 331.218 70.0452 331.165 70.0629C331.112 70.0807 331.055 70.0882 330.998 70.0851H326.138V72.0981H332.579C332.638 72.0915 332.699 72.0963 332.755 72.112C332.812 72.1276 332.863 72.1538 332.906 72.1885C332.948 72.2232 332.98 72.2654 332.999 72.3119C333.018 72.3583 333.024 72.4078 333.016 72.4564V74.4353C333.015 74.461 333.008 74.4864 332.994 74.5098C332.981 74.5333 332.963 74.5543 332.939 74.5718C332.912 74.7196 332.78 74.7935 332.544 74.7935H322.838C322.727 74.798 322.618 74.7675 322.533 74.7082C322.492 74.6766 322.46 74.6376 322.439 74.5942C322.419 74.5509 322.411 74.5043 322.415 74.458L322.45 63.4773Z" fill="#333333"/>
<path d="M335.747 71.0119L336.163 71.3076C336.347 71.4417 336.541 71.5652 336.746 71.6772C337.048 71.8431 337.371 71.9822 337.709 72.0924C338.031 72.1901 338.371 72.2401 338.715 72.2402C338.994 72.2467 339.272 72.216 339.54 72.1492C339.733 72.104 339.911 72.0222 340.059 71.9104C340.185 71.8159 340.278 71.6964 340.33 71.5635C340.386 71.43 340.414 71.2896 340.413 71.1484C340.411 70.9843 340.332 70.8273 340.191 70.7105C340.026 70.5764 339.84 70.4615 339.637 70.3693C339.413 70.271 339.181 70.1855 338.943 70.1134L338.326 69.9372C337.634 69.7454 336.961 69.5077 336.316 69.2263C335.789 69.004 335.305 68.7184 334.881 68.379C334.511 68.0867 334.216 67.7368 334.014 67.3498C333.82 66.9521 333.724 66.527 333.73 66.0987C333.721 65.6381 333.844 65.1823 334.09 64.7681C334.332 64.3684 334.683 64.02 335.116 63.7502C335.597 63.4525 336.14 63.2289 336.718 63.0906C337.394 62.9338 338.095 62.8572 338.798 62.8631C339.36 62.8604 339.922 62.9138 340.469 63.0223C341.035 63.1422 341.579 63.3259 342.084 63.5682C342.299 63.6706 342.507 63.7786 342.701 63.8924C342.895 64.0061 343.068 64.1141 343.214 64.2165C343.342 64.3065 343.458 64.4076 343.561 64.5179C343.637 64.585 343.683 64.6711 343.692 64.7624C343.693 64.8285 343.671 64.8934 343.63 64.9501C343.577 65.0204 343.514 65.0854 343.443 65.1434L341.973 66.4115C341.892 66.4877 341.777 66.5346 341.654 66.5423C341.565 66.5444 341.477 66.5224 341.404 66.4797L341.162 66.3262L341.079 66.2637C340.947 66.1727 340.808 66.0817 340.649 65.985C340.486 65.8919 340.317 65.8064 340.143 65.7291C339.962 65.6539 339.774 65.5912 339.581 65.5415C339.386 65.4919 339.182 65.467 338.978 65.4675C338.778 65.4647 338.578 65.4799 338.382 65.513C338.212 65.5368 338.048 65.5829 337.896 65.6495C337.76 65.7058 337.643 65.79 337.557 65.894C337.471 66.0076 337.425 66.1385 337.425 66.2722C337.425 66.4058 337.471 66.5368 337.557 66.6503C337.664 66.7728 337.801 66.8755 337.959 66.9517C338.177 67.0584 338.41 67.1443 338.652 67.2076C338.916 67.2872 339.221 67.3782 339.574 67.4692C340.254 67.6588 340.878 67.8483 341.446 68.0379C341.979 68.2193 342.478 68.4604 342.93 68.7544C343.338 69.0193 343.67 69.3553 343.9 69.7381C344.149 70.1735 344.27 70.6506 344.254 71.1313C344.262 71.6748 344.115 72.2124 343.824 72.7008C343.537 73.1651 343.133 73.574 342.639 73.9007C342.109 74.2406 341.511 74.5005 340.871 74.6683C340.164 74.849 339.427 74.9391 338.687 74.9356C337.946 74.935 337.211 74.8252 336.517 74.6115C335.81 74.4012 335.142 74.1102 334.534 73.7471C334.304 73.6129 334.088 73.4626 333.889 73.2979L333.466 72.9396C333.353 72.858 333.275 72.7482 333.245 72.6269C333.255 72.567 333.28 72.5094 333.318 72.4576C333.356 72.4058 333.407 72.3609 333.466 72.3255L335.123 71.029C335.216 70.9643 335.329 70.9228 335.449 70.9096C335.515 70.9121 335.579 70.9277 335.636 70.955C335.674 70.9732 335.711 70.9922 335.747 71.0119Z" fill="#333333"/>
</g>
<defs>
<filter id="filter0_d" x="0" y="0" width="354.255" height="140" filterUnits="userSpaceOnUse" color-interpolation-filters="sRGB">
<feFlood flood-opacity="0" result="BackgroundImageFix"/>
<feColorMatrix in="SourceAlpha" type="matrix" values="0 0 0 0 0 0 0 0 0 0 0 0 0 0 0 0 0 0 127 0"/>
<feOffset dy="5"/>
<feGaussianBlur stdDeviation="5"/>
<feColorMatrix type="matrix" values="0 0 0 0 0.2 0 0 0 0 0.2 0 0 0 0 0.2 0 0 0 0.25 0"/>
<feBlend mode="normal" in2="BackgroundImageFix" result="effect1_dropShadow"/>
<feBlend mode="normal" in="SourceGraphic" in2="effect1_dropShadow" result="shape"/>
</filter>
</defs>
</svg>
