<svg width="174" height="62" viewBox="0 0 174 62" fill="none" xmlns="http://www.w3.org/2000/svg">
<path d="M20.5713 11.9477C29.8752 6.26965 40.0236 9.91259 44.8163 14.672C56.365 14.8987 113.596 17.3962 113.596 17.3962L39.1827 17.8497C39.1827 17.8497 34.9566 11.9477 20.5713 11.9477Z" fill="#878A8C"/>
<path d="M38.3381 49.4236C49.6125 50.3307 52.2976 46.4697 56.3829 41.7016C66.2246 41.4749 113.607 39.0356 113.607 39.0356L50.2368 38.582C50.2368 38.582 48.4865 48.0542 38.3381 49.4236Z" fill="#878A8C"/>
<path d="M34.3899 7.63098C19.2647 4.2439 10.134 19.9262 17.4782 34.4282C26.2156 51.6892 46.7939 56.1171 54.6867 46.6915L58.2019 49.8896C58.4854 50.1474 58.6528 50.4748 58.677 50.8187C58.7013 51.1626 58.5809 51.5031 58.3354 51.7852L56.2133 54.2332C56.0892 54.3756 55.9305 54.4962 55.7468 54.5877C55.563 54.6792 55.3582 54.7398 55.1445 54.7656C54.9309 54.7914 54.713 54.782 54.5041 54.738C54.2951 54.6939 54.0994 54.6162 53.9288 54.5094L50.1647 52.1428C49.3952 53.0262 48.4401 53.7946 47.3425 54.4134L48.2411 58.3878C48.3055 58.6762 48.2444 58.9736 48.0682 59.23C47.892 59.4863 47.6115 59.6859 47.2739 59.795L44.2207 60.7806C43.839 60.9033 43.4147 60.9089 43.0283 60.7963C42.6418 60.6838 42.32 60.4609 42.1239 60.17L40.0018 57.0155C38.334 57.2545 36.6318 57.2956 34.9493 57.1376L34.5884 60.0653C34.5636 60.2675 34.4856 60.4631 34.3595 60.639C34.2334 60.815 34.0621 60.9672 33.8572 61.0855C33.6522 61.2039 33.4182 61.2856 33.1709 61.3252C32.9236 61.3649 32.6686 61.3616 32.423 61.3155L28.482 60.5829C28.0683 60.5055 27.6953 60.3251 27.4161 60.0673C27.1369 59.8094 26.9656 59.4873 26.9265 59.1466L26.479 55.1839C24.7016 54.6066 23.0524 53.8005 21.5961 52.7969L19.1564 55.1519C19.0144 55.2889 18.8384 55.4006 18.6398 55.4798C18.4412 55.559 18.2243 55.604 18.003 55.6119C17.7816 55.6199 17.5606 55.5906 17.354 55.5259C17.1475 55.4612 16.96 55.3625 16.8034 55.2362L13.5084 52.5818C13.1735 52.3118 12.9357 51.9739 12.82 51.6038C12.7044 51.2337 12.7153 50.8453 12.8515 50.4798L14.093 47.1479C14.093 47.1479 11.6678 44.8947 10.7078 42.6037L6.9617 42.9409C6.57846 42.9736 6.19232 42.9065 5.85982 42.7496C5.52732 42.5926 5.26593 42.354 5.11391 42.0687L2.76447 37.6612C2.62094 37.3889 2.59671 37.0854 2.69575 36.8006C2.7948 36.5158 3.01122 36.2667 3.30943 36.0941L6.1966 34.4282C5.66528 32.4822 5.28918 30.5109 5.0706 28.5262L0.815627 26.619C0.568343 26.5078 0.362385 26.3454 0.219007 26.1486C0.0756289 25.9518 2.58553e-05 25.7278 0 25.4997L0 19.8972C0.000604143 19.7883 0.0314494 19.6809 0.0902746 19.5828C0.1491 19.4848 0.234413 19.3986 0.339962 19.3306C0.44551 19.2626 0.568616 19.2144 0.700257 19.1897C0.831897 19.165 0.968734 19.1643 1.10074 19.1878L5.36293 19.9495C5.5973 18.3513 5.98829 16.7706 6.53224 15.2221L2.80778 10.989C2.64182 10.7998 2.54506 10.5769 2.52847 10.3456C2.51188 10.1144 2.57614 9.884 2.71395 9.68067L5.09587 6.15985C5.1597 6.06516 5.24957 5.98349 5.35861 5.92108C5.46764 5.85868 5.59295 5.81719 5.72495 5.79979C5.85695 5.7824 5.99214 5.78955 6.12018 5.82072C6.24822 5.85188 6.36571 5.90623 6.46367 5.9796L10.8991 9.30272C11.7658 8.40137 12.8544 7.65405 14.0966 7.10765L12.7036 1.93254C12.6645 1.7874 12.6616 1.63745 12.695 1.49139C12.7284 1.34532 12.7974 1.20606 12.8982 1.08166C12.9989 0.957256 13.1292 0.850196 13.2817 0.766684C13.4341 0.683172 13.6056 0.624867 13.7863 0.595151L17.3952 0.013678C17.5751 -0.0160154 17.762 0.0029385 17.9271 0.0675985C18.0922 0.132258 18.2262 0.239009 18.3083 0.371284L21.4048 5.36033C23.179 5.24173 24.9649 5.31803 26.7136 5.5871L26.9734 1.84532C26.9844 1.73282 27.029 1.62412 27.1034 1.52847C27.1777 1.43283 27.2797 1.35307 27.4005 1.29597C27.5213 1.23888 27.6575 1.20614 27.7974 1.20055C27.9373 1.19496 28.0768 1.21667 28.2041 1.26385L34.3718 3.55776L34.3899 7.63098Z" fill="#F29F05"/>
<path d="M41.0338 32.3458H46.4473C46.5909 32.3415 46.7316 32.3786 46.8443 32.4505C46.8992 32.4929 46.9417 32.5447 46.9686 32.602C46.9954 32.6594 47.006 32.7209 46.9994 32.7819V35.0351C46.998 35.1606 46.9403 35.2814 46.837 35.3753C46.7891 35.4237 46.7281 35.4627 46.6587 35.4894C46.5893 35.5161 46.5133 35.5298 46.4364 35.5294H35.3677C35.2889 35.5284 35.2111 35.5145 35.1391 35.4885C35.0671 35.4625 35.0025 35.425 34.9491 35.3782C34.8886 35.3354 34.8402 35.2826 34.8072 35.2234C34.7742 35.1642 34.7574 35.1 34.7578 35.0351V33.5815C34.7571 33.4899 34.7857 33.3998 34.8408 33.3198L42.1346 26.3043C42.2995 26.1775 42.4287 26.0236 42.5133 25.853C42.598 25.6825 42.6362 25.4993 42.6254 25.3158C42.6308 25.1149 42.5776 24.9157 42.4702 24.7343C42.3704 24.5734 42.2318 24.43 42.0624 24.3128C41.8936 24.2014 41.7018 24.1148 41.4958 24.0569C41.2916 23.9993 41.0769 23.9699 40.8606 23.9697C40.6267 23.9692 40.3954 24.0088 40.1821 24.086C39.9685 24.1674 39.7762 24.2808 39.6155 24.4203C39.4546 24.5531 39.324 24.7076 39.2293 24.8768C39.1359 25.0421 39.0867 25.2214 39.085 25.403V25.9351C39.0801 26.0502 39.0252 26.1603 38.9298 26.2462C38.8755 26.2976 38.8072 26.3383 38.7302 26.365C38.6532 26.3918 38.5696 26.4038 38.4859 26.4003H35.4111C35.3347 26.4051 35.258 26.395 35.1876 26.3707C35.1172 26.3463 35.0551 26.3086 35.0068 26.2607C34.9294 26.1768 34.8887 26.0745 34.8914 25.97V25.4815C34.8809 24.8611 35.0304 24.2456 35.3304 23.6741C35.6305 23.1025 36.0745 22.5874 36.6345 22.1613C37.1769 21.7572 37.8085 21.4387 38.4967 21.2222C39.2242 20.9914 39.9994 20.874 40.7812 20.8763C41.5866 20.8738 42.3868 20.9799 43.1487 21.1903C43.8742 21.3919 44.548 21.6983 45.1372 22.0945C45.7085 22.4781 46.1743 22.9533 46.505 23.49C46.8529 24.0594 47.0285 24.6871 47.0175 25.3216C47.0197 25.6535 46.9663 25.984 46.8587 26.3043C46.7585 26.6055 46.6207 26.8978 46.4473 27.1765C46.2752 27.4334 46.0772 27.6784 45.8554 27.9092C45.6352 28.1447 45.4079 28.3685 45.1661 28.5808L41.0338 32.3458Z" fill="white"/>
<path d="M47.0176 28.3569C47.0155 27.693 47.1247 27.0319 47.3425 26.3915C47.5512 25.7708 47.8619 25.1754 48.2664 24.6209C48.666 24.0732 49.1511 23.569 49.7099 23.1207C50.2622 22.6691 50.8859 22.2781 51.5649 21.9578C52.2524 21.6391 52.9873 21.392 53.752 21.2222C55.3495 20.8655 57.0374 20.8655 58.6349 21.2222C59.404 21.3937 60.1426 21.6438 60.8328 21.9665C61.5124 22.2875 62.1372 22.6784 62.6914 23.1294C63.2505 23.5776 63.7357 24.0818 64.135 24.6297C64.5349 25.1859 64.8454 25.7809 65.0589 26.4002C65.5016 27.6882 65.5016 29.0489 65.0589 30.3368C64.8453 30.9534 64.5348 31.5455 64.135 32.0987C63.7345 32.6424 63.2494 33.1427 62.6914 33.5872C62.1352 34.0365 61.5107 34.4273 60.8328 34.7502C60.1441 35.0753 59.4051 35.3255 58.6349 35.4945C57.0705 35.8443 55.4188 35.8525 53.8491 35.5184C52.2795 35.1842 50.8484 34.5197 49.7027 33.5931C49.145 33.1483 48.6599 32.6481 48.2591 32.1045C47.8548 31.5531 47.5441 30.9605 47.3352 30.3426C47.1176 29.6955 47.0108 29.0274 47.0176 28.3569ZM51.5577 28.3569C51.5553 28.8759 51.6779 29.3903 51.9186 29.8716C52.1454 30.3266 52.4787 30.7421 52.9003 31.0956C53.3326 31.4526 53.8493 31.7364 54.4198 31.9301C54.9903 32.1238 55.6032 32.2236 56.2223 32.2236C56.8414 32.2236 57.4543 32.1238 58.0248 31.9301C58.5954 31.7364 59.112 31.4526 59.5444 31.0956C60.4184 30.3586 60.9013 29.3762 60.8905 28.3569C60.9045 27.3274 60.4234 26.3334 59.548 25.5833C59.1258 25.2286 58.6204 24.945 58.0611 24.7489C57.4782 24.5481 56.8508 24.4446 56.2169 24.4446C55.583 24.4446 54.9556 24.5481 54.3727 24.7489C53.8161 24.9457 53.3132 25.2293 52.893 25.5833C52.4704 25.9416 52.1371 26.3621 51.9114 26.8218C51.673 27.3076 51.5529 27.8258 51.5577 28.3482V28.3569Z" fill="white"/>
<path d="M71.5405 32.3458H76.9539C77.0965 32.3411 77.2363 32.3783 77.3473 32.4504C77.403 32.4925 77.4461 32.5442 77.4736 32.6016C77.5011 32.6589 77.5122 32.7206 77.5061 32.7819V35.0351C77.5047 35.1605 77.447 35.2813 77.3437 35.3752C77.2952 35.4239 77.2336 35.463 77.1636 35.4897C77.0936 35.5164 77.017 35.5299 76.9395 35.5293H65.8672C65.7883 35.5283 65.7105 35.5144 65.6386 35.4884C65.5666 35.4624 65.5019 35.4249 65.4485 35.3781C65.3876 35.3355 65.3387 35.2828 65.305 35.2236C65.2714 35.1644 65.2539 35.1001 65.2537 35.0351V33.5814C65.2542 33.4896 65.284 33.3995 65.3403 33.3197L72.6304 26.3042C72.7966 26.178 72.9268 26.0243 73.0122 25.8537C73.0975 25.683 73.1359 25.4995 73.1248 25.3157C73.1313 25.1248 73.0836 24.9353 72.9854 24.7615C72.8872 24.5877 72.7411 24.4342 72.5582 24.3127C72.3912 24.2008 72.2005 24.1141 71.9952 24.0568C71.7911 23.9993 71.5763 23.9698 71.36 23.9696C71.1251 23.9694 70.8927 24.009 70.6779 24.0859C70.4686 24.1687 70.2801 24.2821 70.1222 24.4203C69.9613 24.5531 69.8306 24.7076 69.736 24.8767C69.6409 25.0416 69.5916 25.2212 69.5916 25.403V25.935C69.5868 26.0502 69.5319 26.1603 69.4365 26.2461C69.3822 26.2976 69.3139 26.3382 69.2369 26.365C69.1599 26.3917 69.0763 26.4037 68.9926 26.4002H65.9141C65.8375 26.4073 65.7598 26.3991 65.6881 26.3763C65.6163 26.3535 65.5526 26.3167 65.5027 26.2694C65.4234 26.1862 65.3825 26.0834 65.3872 25.9786V25.4815C65.3776 24.8405 65.5375 24.2052 65.8564 23.6178C66.1552 23.0691 66.5885 22.5747 67.1303 22.1642C67.6745 21.7569 68.3102 21.4371 69.0034 21.2222C69.7314 20.9941 70.5067 20.8796 71.2879 20.8849C72.0921 20.8823 72.8911 20.9884 73.6517 21.1989C74.3772 21.3966 75.0513 21.7001 75.6403 22.0944C76.2137 22.477 76.6809 22.9525 77.0117 23.4899C77.3583 24.0596 77.5327 24.6872 77.5206 25.3216C77.524 25.6533 77.4718 25.9838 77.3654 26.3042C77.2656 26.606 77.1265 26.8983 76.9503 27.1765C76.7807 27.4338 76.5839 27.679 76.3621 27.9091C76.1419 28.1446 75.911 28.3685 75.6728 28.5807L71.5405 32.3458Z" fill="white"/>
<path d="M77.5208 28.3569C77.5156 27.0437 77.9481 25.7535 78.7731 24.621C79.1738 24.0738 79.6588 23.5697 80.2167 23.1208C80.771 22.6697 81.3958 22.2788 82.0753 21.9578C82.7604 21.6394 83.4929 21.3922 84.2552 21.2222C85.8539 20.8656 87.5429 20.8656 89.1417 21.2222C89.9105 21.3943 90.6491 21.6444 91.3396 21.9665C92.0186 22.2869 92.6423 22.6779 93.1946 23.1295C93.7546 23.5769 94.2399 24.0812 94.6382 24.6297C95.0366 25.1865 95.347 25.7813 95.5621 26.4003C95.9999 27.6888 95.9999 29.0484 95.5621 30.3368C95.3469 30.953 95.0365 31.5449 94.6382 32.0987C94.2387 32.643 93.7535 33.1434 93.1946 33.5873C92.6404 34.0372 92.017 34.428 91.3396 34.7502C89.9324 35.4126 88.3319 35.7617 86.702 35.7617C85.0722 35.7617 83.4717 35.4126 82.0645 34.7502C80.7064 34.1077 79.5738 33.1972 78.7731 32.1045C78.3692 31.5526 78.0573 30.9602 77.8456 30.3427C77.6256 29.6958 77.5163 29.0277 77.5208 28.3569ZM82.0645 28.3569C82.0621 28.8759 82.1846 29.3903 82.4254 29.8717C82.6509 30.3264 82.983 30.742 83.4034 31.0957C83.823 31.4446 84.3232 31.7241 84.8759 31.9185C85.74 32.2193 86.697 32.3017 87.6205 32.1548C88.544 32.0078 89.3903 31.6385 90.0475 31.0957C90.4702 30.7423 90.8047 30.3267 91.0328 29.8717C91.2769 29.3911 91.3996 28.8761 91.3937 28.3569C91.3982 27.8378 91.2755 27.3231 91.0328 26.8422C90.8065 26.3747 90.4694 25.9471 90.0403 25.5833C89.6201 25.2281 89.1157 24.9444 88.557 24.7489C87.9741 24.5481 87.3468 24.4446 86.7129 24.4446C86.0789 24.4446 85.4516 24.5481 84.8687 24.7489C84.3153 24.9475 83.8152 25.2309 83.3962 25.5833C82.9747 25.9418 82.6426 26.3623 82.4182 26.8218C82.1798 27.3076 82.0597 27.8258 82.0645 28.3482V28.3569Z" fill="white"/>
<path d="M101.484 22.1468C101.491 22.1278 101.502 22.11 101.517 22.0945C101.537 22.0749 101.56 22.0573 101.585 22.0421C101.611 22.0266 101.639 22.0139 101.668 22.0043C101.697 22.0003 101.726 22.0003 101.755 22.0043H103.032C103.086 22.0038 103.137 22.0194 103.177 22.0479C103.21 22.07 103.24 22.0943 103.267 22.1206L103.39 22.3503L106.01 27.7929C106.025 27.8125 106.033 27.8352 106.033 27.8583C106.033 27.8815 106.025 27.9042 106.01 27.9237C105.984 27.9427 105.954 27.957 105.921 27.9655C105.888 27.974 105.853 27.9766 105.819 27.9732H104.375C104.314 27.9748 104.253 27.9638 104.198 27.9412C104.152 27.911 104.118 27.8706 104.101 27.8249C104.036 27.6882 103.971 27.5516 103.909 27.4179C103.848 27.2841 103.78 27.1446 103.718 27.0079H101.051L100.86 27.4179L100.665 27.8249C100.65 27.8691 100.617 27.908 100.571 27.9349C100.525 27.9619 100.469 27.9754 100.412 27.9732H98.9399C98.8836 27.9758 98.8282 27.9613 98.7847 27.9325C98.7635 27.9183 98.7494 27.8985 98.7448 27.8766C98.7401 27.8548 98.7453 27.8323 98.7594 27.8133L101.484 22.1468ZM102.394 23.868C102.329 24.0046 102.264 24.1587 102.199 24.3099C102.134 24.4611 102.072 24.6268 102.008 24.7867C101.943 24.9466 101.881 25.1065 101.816 25.2635C101.751 25.4205 101.686 25.5542 101.625 25.7054H103.155L102.394 23.868Z" fill="white"/>
<path d="M108.161 25.5832C108.154 25.7555 108.189 25.9272 108.262 26.0891C108.321 26.2159 108.413 26.331 108.533 26.4264C108.643 26.5129 108.776 26.5785 108.922 26.6183C109.071 26.6587 109.227 26.6793 109.384 26.6793C109.546 26.6801 109.706 26.6564 109.857 26.6095C110.003 26.5612 110.135 26.4901 110.247 26.4002C110.364 26.3007 110.455 26.183 110.514 26.0542C110.582 25.9034 110.615 25.7437 110.611 25.5832V22.1671C110.61 22.1439 110.615 22.1209 110.626 22.0993C110.636 22.0778 110.652 22.0583 110.673 22.0421C110.694 22.0243 110.72 22.0105 110.749 22.0015C110.777 21.9925 110.808 21.9885 110.839 21.9897H112.282C112.316 21.9881 112.349 21.9922 112.38 22.0017C112.411 22.0112 112.439 22.026 112.463 22.045C112.483 22.0607 112.5 22.0797 112.511 22.1007C112.522 22.1216 112.528 22.1442 112.528 22.1671V25.5571C112.542 25.9607 112.454 26.3625 112.268 26.7375C112.117 27.0348 111.881 27.2989 111.579 27.5079C111.285 27.7048 110.941 27.8477 110.572 27.9266C110.181 28.0116 109.778 28.0536 109.373 28.0516C108.967 28.053 108.563 28.0089 108.172 27.9208C107.802 27.8381 107.457 27.6934 107.161 27.4963C106.86 27.285 106.624 27.0202 106.472 26.7229C106.289 26.3535 106.201 25.9577 106.216 25.56V22.1671C106.214 22.1219 106.235 22.0781 106.273 22.045C106.29 22.0273 106.311 22.0131 106.335 22.0035C106.36 21.9939 106.387 21.9892 106.414 21.9897H107.908C107.966 21.9928 108.02 22.0112 108.063 22.0421C108.089 22.0558 108.11 22.0745 108.124 22.0962C108.139 22.118 108.146 22.1424 108.146 22.1671L108.161 25.5832Z" fill="white"/>
<path d="M112.834 22.167C112.833 22.1429 112.838 22.1187 112.85 22.0965C112.862 22.0743 112.88 22.0546 112.903 22.0391C112.949 22.0063 113.008 21.9887 113.069 21.9897H118.439C118.497 21.9895 118.553 22.0048 118.598 22.0333C118.622 22.0499 118.642 22.0704 118.655 22.0934C118.669 22.1164 118.676 22.1415 118.677 22.167V23.1643C118.676 23.2148 118.654 23.2636 118.616 23.3038C118.595 23.325 118.568 23.3418 118.537 23.353C118.506 23.3641 118.473 23.3692 118.439 23.3678H116.718V27.7696C116.718 27.8183 116.695 27.8653 116.653 27.9004C116.632 27.9197 116.605 27.9349 116.576 27.945C116.547 27.9551 116.515 27.9597 116.483 27.9585H115.021C114.961 27.9577 114.903 27.9391 114.859 27.9062C114.836 27.8887 114.817 27.8676 114.805 27.844C114.793 27.8205 114.786 27.7951 114.787 27.7696V23.3678H113.069C113.038 23.3685 113.008 23.3643 112.979 23.3553C112.951 23.3463 112.925 23.3327 112.903 23.3155C112.878 23.2959 112.86 23.2722 112.848 23.246C112.836 23.2199 112.831 23.192 112.834 23.1643V22.167Z" fill="white"/>
<path d="M118.273 24.9814C118.273 24.4351 118.452 23.8985 118.793 23.426C118.959 23.1988 119.159 22.9888 119.388 22.8009C119.625 22.6144 119.891 22.4532 120.179 22.3212C120.466 22.1884 120.773 22.0849 121.092 22.013C121.755 21.8657 122.456 21.8657 123.12 22.013C123.439 22.0844 123.746 22.1879 124.033 22.3212C124.316 22.4542 124.576 22.6153 124.809 22.8009C125.038 22.9888 125.238 23.1988 125.404 23.426C125.57 23.6571 125.699 23.9043 125.787 24.1615C125.975 24.6967 125.975 25.2633 125.787 25.7984C125.7 26.0551 125.571 26.3014 125.404 26.5311C125.239 26.7569 125.039 26.965 124.809 27.1503C124.57 27.3328 124.303 27.4901 124.015 27.6184C123.575 27.8248 123.088 27.9583 122.583 28.0112C122.078 28.0642 121.565 28.0354 121.074 27.9266C120.115 27.7149 119.296 27.21 118.793 26.5194C118.624 26.2905 118.496 26.0439 118.41 25.7868C118.32 25.5245 118.274 25.2536 118.273 24.9814ZM120.204 24.9814C120.202 25.1951 120.249 25.4071 120.345 25.6065C120.434 25.7926 120.566 25.9633 120.734 26.1095C121.002 26.333 121.347 26.4857 121.725 26.5475C122.103 26.6093 122.495 26.5772 122.849 26.4555C123.075 26.378 123.278 26.2631 123.445 26.1182C123.616 25.973 123.749 25.8021 123.838 25.6152C124.021 25.2135 124.021 24.7726 123.838 24.3709C123.753 24.174 123.619 23.993 123.445 23.8388C123.277 23.6929 123.075 23.5761 122.849 23.4958C122.496 23.3682 122.103 23.3326 121.724 23.3942C121.344 23.4557 120.999 23.6111 120.734 23.8388C120.566 23.9871 120.434 24.1597 120.345 24.3476C120.249 24.5479 120.201 24.761 120.204 24.9756V24.9814Z" fill="white"/>
<path d="M98.958 29.8891C98.9575 29.8647 98.9632 29.8404 98.9751 29.8178C98.9869 29.7953 99.0044 29.775 99.0266 29.7583C99.0726 29.7263 99.132 29.7097 99.1926 29.7118H104.563C104.62 29.7111 104.676 29.7265 104.722 29.7554C104.746 29.7719 104.765 29.7923 104.779 29.8154C104.793 29.8384 104.8 29.8636 104.801 29.8891V30.8864C104.801 30.9363 104.779 30.9846 104.74 31.023C104.72 31.0453 104.693 31.0631 104.662 31.0748C104.631 31.0865 104.597 31.0917 104.563 31.0899H102.856V35.4916C102.856 35.5404 102.833 35.5874 102.791 35.6225C102.77 35.6416 102.743 35.6568 102.714 35.6668C102.685 35.6769 102.653 35.6816 102.621 35.6806H101.16C101.13 35.6805 101.1 35.6756 101.073 35.6661C101.046 35.6566 101.021 35.6428 101.001 35.6254C100.977 35.609 100.957 35.5885 100.944 35.5654C100.931 35.5423 100.924 35.5171 100.925 35.4916V31.0899H99.2071C99.1764 31.0906 99.146 31.0864 99.1174 31.0774C99.0889 31.0684 99.0629 31.0548 99.041 31.0376C99.0175 31.0174 98.9992 30.9936 98.9874 30.9677C98.9756 30.9417 98.9705 30.914 98.9725 30.8864L98.958 29.8891Z" fill="white"/>
<path d="M105.27 29.8978C105.266 29.8479 105.287 29.7988 105.328 29.7612C105.349 29.7441 105.374 29.7308 105.402 29.7223C105.43 29.7137 105.46 29.7102 105.49 29.7118H108.713C109.044 29.7103 109.372 29.7627 109.677 29.8659C109.968 29.966 110.233 30.1089 110.46 30.2874C110.689 30.4664 110.87 30.6806 110.994 30.9174C111.118 31.1541 111.182 31.4086 111.182 31.6655C111.183 31.8416 111.153 32.0169 111.091 32.1859C111.031 32.3489 110.944 32.5045 110.831 32.6482C110.723 32.7912 110.592 32.9222 110.442 33.0378C110.29 33.1501 110.123 33.2476 109.944 33.3285L111.228 35.2736C111.255 35.3195 111.285 35.3642 111.319 35.4073C111.351 35.4463 111.369 35.4915 111.373 35.5381C111.374 35.5569 111.37 35.5756 111.36 35.5928C111.351 35.61 111.337 35.6251 111.319 35.637C111.278 35.6617 111.228 35.6741 111.178 35.6719H109.467C109.412 35.6723 109.359 35.658 109.316 35.6312C109.27 35.6054 109.238 35.5671 109.225 35.5236L108.013 33.6861H107.186V35.5003C107.186 35.6137 107.111 35.6719 106.959 35.6719H105.49C105.432 35.6742 105.375 35.6586 105.331 35.6283C105.31 35.6121 105.293 35.5921 105.282 35.57C105.272 35.5478 105.268 35.524 105.27 35.5003V29.8978ZM109.179 31.6888C109.178 31.6064 109.159 31.5248 109.124 31.4475C109.087 31.3678 109.035 31.2933 108.969 31.2265C108.901 31.1598 108.819 31.1028 108.727 31.0579C108.633 31.0134 108.529 30.9838 108.421 30.9707H108.157H107.89H107.186V32.4447H108.269H108.424C108.535 32.4352 108.642 32.4064 108.738 32.3604C108.828 32.3182 108.908 32.263 108.973 32.1976C109.036 32.1308 109.084 32.0561 109.117 31.9766C109.159 31.8844 109.18 31.7869 109.179 31.6888Z" fill="white"/>
<path d="M113.654 29.8687C113.658 29.8492 113.67 29.8312 113.686 29.8164C113.704 29.7954 113.728 29.7776 113.755 29.7641C113.779 29.7477 113.808 29.7349 113.838 29.7263C113.866 29.7222 113.896 29.7222 113.924 29.7263H115.202C115.254 29.726 115.305 29.7404 115.346 29.767C115.378 29.7906 115.408 29.8158 115.436 29.8426L115.559 30.0722L118.179 35.5148C118.195 35.5344 118.203 35.5571 118.203 35.5802C118.203 35.6034 118.195 35.6261 118.179 35.6457C118.153 35.664 118.123 35.6778 118.09 35.6863C118.057 35.6948 118.022 35.6978 117.988 35.6951H116.544C116.483 35.6978 116.421 35.6856 116.368 35.6602C116.322 35.6307 116.288 35.5914 116.27 35.5468C116.205 35.4102 116.14 35.2735 116.079 35.1398C116.018 35.006 115.949 34.8665 115.888 34.7298H113.239L113.047 35.1398L112.852 35.5468C112.838 35.591 112.805 35.6299 112.759 35.6569C112.713 35.6838 112.657 35.6973 112.6 35.6951H111.127C111.07 35.6964 111.014 35.682 110.969 35.6544C110.949 35.6395 110.936 35.6195 110.932 35.5979C110.928 35.5762 110.933 35.5541 110.947 35.5352L113.654 29.8687ZM114.563 31.5899C114.498 31.7265 114.433 31.8806 114.368 32.0318C114.303 32.183 114.242 32.3487 114.177 32.5086C114.112 32.6685 114.051 32.8284 113.986 32.9854C113.921 33.1424 113.856 33.2762 113.794 33.4244H115.325L114.563 31.5899Z" fill="white"/>
<path d="M118.443 29.889C118.441 29.8434 118.46 29.7989 118.497 29.764C118.518 29.7458 118.544 29.7317 118.572 29.7226C118.601 29.7135 118.632 29.7098 118.663 29.7117H120.294C120.344 29.712 120.394 29.722 120.439 29.7408C120.493 29.7612 120.538 29.7947 120.568 29.8367C120.992 30.3872 121.411 30.9279 121.824 31.459C122.243 31.994 122.662 32.5347 123.087 33.0842V29.8629C123.098 29.8201 123.126 29.7813 123.167 29.7524C123.207 29.7262 123.256 29.7118 123.308 29.7117H124.73C124.794 29.7091 124.857 29.7256 124.906 29.7582C124.929 29.7744 124.947 29.7946 124.959 29.8173C124.971 29.8399 124.977 29.8645 124.975 29.889V35.5235C124.977 35.5458 124.972 35.5681 124.961 35.5888C124.951 35.6094 124.934 35.6278 124.914 35.6427C124.867 35.6702 124.809 35.6835 124.751 35.6805H123.16C123.117 35.681 123.076 35.6685 123.044 35.6456C123.006 35.6151 122.971 35.582 122.94 35.5468C122.496 34.9653 122.059 34.3838 121.626 33.8023C121.193 33.2209 120.756 32.6394 120.309 32.0579V35.509C120.314 35.5337 120.312 35.5592 120.302 35.5831C120.292 35.607 120.276 35.6287 120.253 35.6462C120.231 35.6636 120.203 35.6765 120.173 35.6835C120.143 35.6905 120.112 35.6914 120.081 35.6863H118.663C118.632 35.6886 118.602 35.6853 118.573 35.6767C118.544 35.6682 118.518 35.6546 118.497 35.6369C118.461 35.6027 118.442 35.5594 118.443 35.5148V29.889Z" fill="white"/>
<path d="M126.787 33.75L127.003 33.9012C127.099 33.9697 127.2 34.0329 127.306 34.0902C127.464 34.1749 127.632 34.2461 127.808 34.3024C127.975 34.3524 128.153 34.3779 128.331 34.378C128.477 34.3813 128.622 34.3656 128.761 34.3315C128.861 34.3076 128.954 34.2659 129.031 34.2094C129.097 34.161 129.145 34.0999 129.172 34.032C129.201 33.9638 129.216 33.892 129.215 33.8198C129.215 33.7359 129.173 33.6556 129.1 33.5959C129.013 33.528 128.916 33.4694 128.811 33.4215C128.695 33.3712 128.574 33.3275 128.45 33.2906L128.129 33.2005C127.769 33.1025 127.419 32.9809 127.083 32.8371C126.808 32.7234 126.556 32.5774 126.335 32.4039C126.143 32.2544 125.99 32.0755 125.884 31.8777C125.784 31.6743 125.733 31.457 125.736 31.238C125.732 31.0025 125.796 30.7695 125.924 30.5577C126.05 30.3533 126.233 30.1752 126.458 30.0373C126.708 29.8851 126.991 29.7708 127.292 29.7C127.644 29.6197 128.009 29.5805 128.375 29.5837C128.668 29.5823 128.96 29.6097 129.244 29.6651C129.532 29.7231 129.809 29.8121 130.067 29.9297C130.179 29.982 130.287 30.0373 130.388 30.0954C130.489 30.1536 130.58 30.2088 130.655 30.2612C130.722 30.3072 130.783 30.3588 130.836 30.4152C130.875 30.4496 130.9 30.4936 130.904 30.5403C130.905 30.574 130.894 30.6072 130.872 30.6362C130.845 30.6722 130.812 30.7054 130.775 30.7351L130.027 31.3979C130.006 31.4176 129.98 31.4336 129.951 31.445C129.922 31.4565 129.89 31.4632 129.858 31.4648C129.813 31.4659 129.768 31.4546 129.732 31.4328L129.605 31.3543L129.558 31.3223C129.493 31.2758 129.418 31.2293 129.338 31.1799C129.254 31.1323 129.166 31.0886 129.075 31.0491C128.981 31.0106 128.883 30.9785 128.782 30.9531C128.681 30.9278 128.575 30.915 128.468 30.9153C128.364 30.9139 128.26 30.9217 128.158 30.9386C128.069 30.9512 127.982 30.9747 127.902 31.0083C127.832 31.038 127.773 31.0809 127.729 31.1334C127.683 31.1906 127.661 31.2575 127.664 31.3253C127.663 31.3941 127.686 31.4618 127.732 31.52C127.79 31.582 127.862 31.6343 127.945 31.6741C128.059 31.7287 128.18 31.7726 128.306 31.805C128.443 31.8457 128.602 31.8922 128.786 31.9387C129.14 32.0356 129.464 32.1325 129.76 32.2294C130.038 32.3222 130.298 32.4455 130.533 32.5958C130.745 32.7312 130.918 32.903 131.038 33.0987C131.168 33.3213 131.231 33.5653 131.222 33.8111C131.227 34.0893 131.149 34.3644 130.995 34.6135C130.848 34.8513 130.638 35.0606 130.381 35.2269C130.106 35.4007 129.794 35.5336 129.461 35.6194C129.092 35.712 128.707 35.7581 128.32 35.7561C127.936 35.7558 127.554 35.6996 127.194 35.5904C126.826 35.4828 126.479 35.3341 126.162 35.1484C126.042 35.079 125.929 35.0022 125.823 34.9188L125.606 34.7356C125.547 34.6938 125.507 34.6377 125.491 34.5757C125.496 34.5451 125.509 34.5156 125.529 34.4892C125.549 34.4627 125.575 34.4397 125.606 34.4216L126.469 33.7587C126.517 33.7256 126.576 33.7044 126.639 33.6977C126.673 33.699 126.706 33.7069 126.736 33.7209C126.753 33.7303 126.77 33.74 126.787 33.75Z" fill="white"/>
<path d="M132.063 29.8891C132.07 29.8422 132.095 29.7984 132.135 29.7641C132.157 29.7461 132.184 29.7322 132.213 29.7232C132.242 29.7141 132.274 29.7102 132.305 29.7117H134.03C134.086 29.7094 134.141 29.7234 134.186 29.7512C134.23 29.7789 134.261 29.8186 134.272 29.8629L135.629 33.5146L136.993 29.8629C137.008 29.8182 137.042 29.7789 137.088 29.7515C137.135 29.7241 137.192 29.7101 137.249 29.7117H138.945C139.005 29.7127 139.062 29.7302 139.108 29.7612C139.131 29.7771 139.15 29.7967 139.164 29.8186C139.177 29.8406 139.185 29.8646 139.187 29.8891C139.305 30.8311 139.425 31.7663 139.548 32.6947C139.671 33.6231 139.791 34.5593 139.909 35.5032V35.5236C139.909 35.6282 139.837 35.6806 139.689 35.6806H138.278C138.247 35.6841 138.216 35.682 138.186 35.6745C138.156 35.6671 138.129 35.6544 138.106 35.6374C138.084 35.6204 138.066 35.5996 138.054 35.5764C138.043 35.5532 138.038 35.5282 138.039 35.5032L137.603 32.3952L136.48 35.5236C136.469 35.5606 136.443 35.5939 136.408 35.6195C136.394 35.6359 136.376 35.6497 136.355 35.6597C136.334 35.6698 136.31 35.6759 136.286 35.6777H134.975C134.926 35.6729 134.881 35.6531 134.849 35.6224C134.81 35.5984 134.784 35.5629 134.777 35.5236L133.651 32.404L133.218 35.5032C133.218 35.6224 133.131 35.6806 132.973 35.6806H131.561C131.532 35.6836 131.502 35.681 131.474 35.6731C131.446 35.6651 131.42 35.652 131.4 35.6348C131.379 35.6176 131.364 35.5968 131.355 35.5739C131.346 35.5511 131.344 35.5269 131.348 35.5032L132.063 29.8891Z" fill="white"/>
<path d="M140.508 29.8891C140.506 29.8435 140.526 29.799 140.562 29.7641C140.583 29.746 140.608 29.7318 140.636 29.7228C140.664 29.7137 140.694 29.7099 140.725 29.7118H142.193C142.251 29.7133 142.307 29.7296 142.352 29.7583C142.379 29.7725 142.401 29.7919 142.416 29.8148C142.431 29.8377 142.439 29.8632 142.439 29.8891V35.5033C142.439 35.6225 142.356 35.6806 142.193 35.6806H140.725C140.695 35.6841 140.664 35.6819 140.636 35.6742C140.607 35.6665 140.582 35.6535 140.56 35.6362C140.539 35.6189 140.524 35.5979 140.515 35.5748C140.505 35.5517 140.503 35.5272 140.508 35.5033V29.8891Z" fill="white"/>
<path d="M144.229 33.7501L144.445 33.9012C144.542 33.9684 144.643 34.0315 144.749 34.0902C144.907 34.1756 145.076 34.2468 145.254 34.3025C145.421 34.3527 145.598 34.3783 145.777 34.3781C145.921 34.3814 146.065 34.3657 146.203 34.3315C146.304 34.309 146.397 34.2671 146.474 34.2094C146.54 34.1613 146.59 34.1002 146.618 34.0321C146.644 33.9633 146.658 33.8918 146.658 33.8198C146.658 33.7782 146.648 33.7369 146.628 33.6985C146.608 33.66 146.579 33.6252 146.542 33.596C146.456 33.5274 146.359 33.4687 146.253 33.4215C146.137 33.3713 146.016 33.3276 145.893 33.2907L145.575 33.2006C145.213 33.1031 144.862 32.9815 144.525 32.8371C144.25 32.7235 143.999 32.5775 143.778 32.4039C143.584 32.2537 143.431 32.0729 143.328 31.8728C143.225 31.6727 143.174 31.4576 143.179 31.241C143.171 31.009 143.233 30.7789 143.358 30.57C143.484 30.3611 143.67 30.1794 143.9 30.0403C144.151 29.888 144.433 29.7737 144.734 29.703C145.086 29.6228 145.451 29.5837 145.817 29.5867C146.11 29.5853 146.402 29.6126 146.687 29.6681C146.974 29.7261 147.251 29.8151 147.509 29.9327C147.621 29.985 147.73 30.0403 147.831 30.0984C147.932 30.1566 148.022 30.2118 148.098 30.2641C148.165 30.311 148.226 30.3625 148.282 30.4182C148.319 30.4535 148.342 30.4972 148.347 30.5432C148.347 30.577 148.336 30.6102 148.314 30.6392C148.287 30.6752 148.254 30.7083 148.217 30.738L147.473 31.398C147.429 31.4366 147.369 31.4605 147.304 31.4649C147.257 31.4659 147.212 31.4547 147.174 31.4329L147.047 31.3544L147.004 31.3224C146.936 31.2759 146.863 31.2294 146.78 31.1799C146.697 31.1323 146.61 31.0886 146.521 31.0491C146.425 31.0107 146.326 30.9786 146.225 30.9532C146.123 30.9278 146.017 30.9151 145.911 30.9154C145.806 30.9141 145.702 30.9219 145.6 30.9386C145.512 30.9508 145.427 30.9744 145.348 31.0084C145.276 31.0372 145.215 31.0802 145.171 31.1334C145.126 31.1915 145.102 31.2584 145.102 31.3268C145.102 31.3951 145.126 31.4621 145.171 31.5201C145.227 31.5821 145.298 31.6345 145.38 31.6742C145.495 31.7275 145.615 31.7714 145.741 31.805C145.878 31.8457 146.041 31.8923 146.221 31.9388C146.582 32.0347 146.899 32.1336 147.199 32.2295C147.475 32.323 147.733 32.4462 147.968 32.5958C148.18 32.732 148.354 32.9036 148.477 33.0988C148.603 33.3221 148.665 33.5657 148.657 33.8111C148.661 34.089 148.585 34.3638 148.433 34.6135C148.284 34.8509 148.073 35.06 147.816 35.227C147.541 35.4017 147.23 35.5347 146.896 35.6195C146.528 35.7118 146.144 35.7579 145.759 35.7561C145.373 35.7554 144.991 35.6993 144.629 35.5904C144.262 35.4823 143.914 35.3336 143.597 35.1485C143.477 35.0799 143.365 35.003 143.262 34.9188C143.168 34.8432 143.096 34.7822 143.045 34.7357C142.986 34.6943 142.947 34.6379 142.933 34.5758C142.938 34.5453 142.95 34.5158 142.969 34.4893C142.989 34.4628 143.014 34.4398 143.045 34.4217L143.911 33.7588C143.959 33.7253 144.018 33.704 144.081 33.6977C144.114 33.6992 144.146 33.7071 144.175 33.721C144.193 33.7303 144.211 33.74 144.229 33.7501Z" fill="white"/>
<path d="M150.025 33.75L150.245 33.9012C150.34 33.9691 150.44 34.0322 150.545 34.0902C150.703 34.175 150.873 34.2461 151.05 34.3024C151.217 34.3526 151.394 34.3782 151.573 34.378C151.717 34.3815 151.861 34.3658 151.999 34.3315C152.101 34.3083 152.195 34.2665 152.273 34.2094C152.337 34.1603 152.385 34.0994 152.414 34.032C152.443 33.9638 152.458 33.892 152.457 33.8198C152.457 33.778 152.446 33.7366 152.426 33.6982C152.405 33.6597 152.376 33.625 152.338 33.5959C152.254 33.5273 152.158 33.4686 152.053 33.4215C151.936 33.3718 151.816 33.3281 151.692 33.2907L151.371 33.2005C151.01 33.1025 150.66 32.981 150.324 32.8371C150.049 32.7227 149.797 32.5767 149.574 32.4039C149.383 32.2536 149.231 32.0748 149.126 31.8777C149.024 31.6747 148.973 31.4571 148.978 31.238C148.974 31.0029 149.037 30.7702 149.162 30.5577C149.289 30.354 149.472 30.176 149.696 30.0373C149.948 29.885 150.232 29.7708 150.534 29.7001C150.886 29.6195 151.25 29.5804 151.616 29.5838C151.909 29.5824 152.201 29.6097 152.486 29.6652C152.773 29.7226 153.049 29.8116 153.305 29.9297C153.421 29.9821 153.526 30.0373 153.63 30.0955C153.735 30.1536 153.818 30.2088 153.894 30.2612C153.962 30.3065 154.024 30.3582 154.078 30.4153C154.116 30.4504 154.14 30.494 154.146 30.5403C154.147 30.5741 154.135 30.6073 154.114 30.6362C154.086 30.6722 154.054 30.7054 154.016 30.7351L153.269 31.398C153.226 31.4371 153.165 31.461 153.1 31.4648C153.054 31.4659 153.01 31.4546 152.973 31.4328C152.929 31.409 152.887 31.3827 152.847 31.3543L152.8 31.3224C152.735 31.2758 152.659 31.2293 152.58 31.1799C152.495 31.1323 152.407 31.0886 152.317 31.0491C152.221 31.0106 152.122 30.9785 152.021 30.9531C151.919 30.9274 151.813 30.9146 151.707 30.9153C151.604 30.9139 151.501 30.9217 151.4 30.9386C151.31 30.9508 151.224 30.9743 151.144 31.0084C151.074 31.038 151.015 31.0809 150.97 31.1334C150.925 31.1906 150.903 31.2575 150.905 31.3253C150.903 31.3944 150.927 31.4624 150.974 31.5201C151.03 31.5821 151.102 31.6344 151.183 31.6742C151.298 31.7275 151.419 31.7713 151.544 31.805C151.685 31.8457 151.844 31.8922 152.028 31.9387C152.389 32.0347 152.706 32.1335 153.002 32.2295C153.279 32.323 153.539 32.4462 153.775 32.5958C153.986 32.732 154.159 32.9036 154.28 33.0988C154.408 33.3216 154.47 33.5655 154.46 33.8111C154.466 34.0891 154.389 34.3642 154.236 34.6135C154.089 34.8513 153.88 35.0606 153.623 35.227C153.347 35.4013 153.034 35.5342 152.699 35.6195C152.331 35.7123 151.948 35.7584 151.562 35.7561C151.178 35.7558 150.796 35.6997 150.436 35.5904C150.068 35.4835 149.72 35.3347 149.404 35.1485C149.284 35.079 149.17 35.0022 149.065 34.9188L148.848 34.7356C148.789 34.6939 148.749 34.6377 148.733 34.5757C148.738 34.5451 148.751 34.5156 148.771 34.4892C148.791 34.4627 148.817 34.4397 148.848 34.4216L149.711 33.7587C149.759 33.7252 149.818 33.704 149.88 33.6977C149.914 33.6991 149.946 33.7071 149.974 33.7209C149.992 33.73 150.008 33.7397 150.025 33.75Z" fill="white"/>
<path d="M154.547 32.7035C154.545 32.4265 154.59 32.1507 154.681 31.8836C154.855 31.37 155.192 30.9019 155.659 30.5252C156.126 30.1485 156.707 29.8761 157.344 29.735C158.008 29.5838 158.711 29.5838 159.376 29.735C159.696 29.8051 160.003 29.9087 160.289 30.0432C160.571 30.1769 160.831 30.338 161.065 30.5229C161.295 30.7103 161.495 30.9203 161.66 31.148C161.825 31.3795 161.954 31.6266 162.043 31.8836C162.226 32.4193 162.226 32.9847 162.043 33.5204C161.868 34.031 161.531 34.496 161.065 34.8694C160.832 35.0553 160.571 35.2173 160.289 35.3521C159.704 35.6266 159.039 35.7712 158.362 35.7712C157.685 35.7712 157.02 35.6266 156.434 35.3521C156.153 35.218 155.893 35.0559 155.662 34.8694C155.432 34.6842 155.232 34.4761 155.067 34.2502C154.898 34.0219 154.768 33.7765 154.681 33.5204C154.59 33.2542 154.545 32.9794 154.547 32.7035ZM156.478 32.7035C156.475 32.9162 156.523 33.1273 156.619 33.3256C156.707 33.513 156.839 33.6848 157.008 33.8315C157.279 34.0515 157.625 34.2011 158.002 34.2612C158.378 34.3214 158.769 34.2891 159.123 34.1688C159.348 34.0901 159.551 33.9753 159.719 33.8315C159.89 33.6857 160.024 33.5137 160.112 33.3256C160.295 32.9249 160.295 32.4849 160.112 32.0842C160.024 31.8952 159.89 31.7223 159.719 31.5754C159.551 31.4295 159.349 31.3127 159.123 31.2323C158.77 31.1047 158.377 31.0692 157.997 31.1307C157.618 31.1922 157.272 31.3477 157.008 31.5754C156.839 31.7232 156.707 31.8959 156.619 32.0842C156.525 32.2798 156.477 32.4879 156.478 32.6976V32.7035ZM156.676 28.4238C156.741 28.3505 156.818 28.284 156.904 28.2261C156.989 28.1672 157.082 28.1164 157.182 28.0749C157.28 28.0341 157.384 28.0029 157.492 27.9819C157.596 27.9598 157.702 27.9491 157.809 27.9499C157.874 27.9444 157.94 27.9444 158.004 27.9499C158.083 27.9628 158.161 27.9813 158.235 28.0051C158.318 28.0342 158.412 28.0691 158.513 28.1127C158.638 28.1627 158.758 28.219 158.874 28.2813L158.979 28.325C159.017 28.3345 159.058 28.3394 159.098 28.3395C159.159 28.3411 159.219 28.329 159.271 28.3046C159.32 28.2825 159.364 28.254 159.401 28.2203L159.567 28.0575C159.576 28.0432 159.588 28.0309 159.604 28.0218C159.62 28.0126 159.639 28.0069 159.658 28.0052C159.678 28.0034 159.698 28.0057 159.716 28.0118C159.734 28.0179 159.75 28.0276 159.762 28.04L160.274 28.4005C160.303 28.4224 160.328 28.4479 160.347 28.4761C160.347 28.4994 160.347 28.5256 160.314 28.5605L160.166 28.7174C160.037 28.8625 159.868 28.981 159.672 29.0634C159.48 29.1461 159.265 29.1891 159.047 29.1884C158.913 29.1883 158.78 29.1696 158.654 29.1332C158.519 29.0972 158.389 29.0484 158.268 28.9878L157.994 28.8454L157.889 28.8018C157.849 28.7964 157.809 28.7964 157.77 28.8018C157.71 28.8006 157.65 28.8116 157.597 28.8337C157.548 28.8552 157.505 28.8838 157.47 28.9181L157.315 29.078C157.304 29.0923 157.289 29.104 157.27 29.1122C157.252 29.1203 157.231 29.1246 157.21 29.1245C157.189 29.1271 157.167 29.1258 157.147 29.1208C157.126 29.1158 157.107 29.1071 157.091 29.0954L156.579 28.7436C156.562 28.7325 156.548 28.7198 156.536 28.7058C156.523 28.6904 156.516 28.672 156.517 28.6535C156.516 28.6477 156.516 28.6418 156.517 28.636C156.514 28.6245 156.514 28.6126 156.517 28.6012C156.517 28.5837 156.546 28.5605 156.572 28.5343C156.603 28.4936 156.638 28.4548 156.676 28.418V28.4238Z" fill="white"/>
<path d="M162.649 29.8978C162.647 29.8481 162.667 29.7995 162.707 29.7612C162.728 29.7445 162.754 29.7315 162.782 29.723C162.81 29.7145 162.839 29.7107 162.869 29.7117H167.817C167.848 29.7102 167.88 29.7141 167.909 29.7232C167.938 29.7322 167.965 29.7461 167.987 29.7641C168.028 29.8029 168.048 29.8529 168.044 29.9036V30.8979C168.045 30.9456 168.024 30.9918 167.987 31.0288C167.965 31.0494 167.938 31.0657 167.907 31.0763C167.877 31.0869 167.843 31.0916 167.81 31.0898H164.562V32.0871H167.095C167.15 32.0853 167.205 32.0975 167.25 32.1219C167.272 32.1368 167.289 32.1557 167.3 32.1769C167.31 32.1982 167.315 32.2212 167.312 32.2441V33.1163C167.31 33.1561 167.291 33.1941 167.258 33.2238C167.238 33.2417 167.213 33.2558 167.186 33.2648C167.158 33.2739 167.129 33.2778 167.099 33.2762H164.569V34.3054H167.922C167.953 34.302 167.984 34.3044 168.013 34.3125C168.043 34.3205 168.07 34.3339 168.092 34.3516C168.114 34.3693 168.13 34.3909 168.14 34.4147C168.15 34.4384 168.153 34.4637 168.149 34.4885V35.5003C168.149 35.5135 168.145 35.5264 168.138 35.5384C168.131 35.5504 168.121 35.5612 168.109 35.5701C168.095 35.6457 168.026 35.6835 167.904 35.6835H162.851C162.793 35.6858 162.736 35.6702 162.692 35.6399C162.671 35.6237 162.654 35.6037 162.643 35.5816C162.633 35.5594 162.629 35.5356 162.631 35.5119L162.649 29.8978Z" fill="white"/>
<path d="M169.571 33.75L169.788 33.9012C169.883 33.9698 169.984 34.0329 170.091 34.0902C170.248 34.175 170.416 34.2461 170.592 34.3024C170.76 34.3524 170.937 34.378 171.116 34.378C171.261 34.3814 171.406 34.3656 171.545 34.3315C171.646 34.3084 171.739 34.2666 171.816 34.2094C171.881 34.1611 171.929 34.1 171.957 34.0321C171.986 33.9638 172 33.892 172 33.8198C171.999 33.7359 171.958 33.6556 171.884 33.5959C171.799 33.5273 171.701 33.4686 171.596 33.4215C171.479 33.3712 171.359 33.3275 171.235 33.2907L170.914 33.2005C170.553 33.1025 170.203 32.981 169.867 32.8371C169.593 32.7234 169.341 32.5774 169.12 32.4039C168.928 32.2545 168.774 32.0756 168.669 31.8777C168.568 31.6744 168.518 31.457 168.521 31.2381C168.516 31.0026 168.581 30.7695 168.708 30.5577C168.834 30.3534 169.017 30.1752 169.243 30.0373C169.493 29.8851 169.775 29.7708 170.076 29.7001C170.428 29.6199 170.793 29.5807 171.159 29.5838C171.452 29.5824 171.744 29.6097 172.029 29.6652C172.324 29.7265 172.607 29.8204 172.87 29.9443C172.981 29.9966 173.09 30.0519 173.191 30.11C173.292 30.1682 173.382 30.2234 173.458 30.2757C173.525 30.3218 173.585 30.3734 173.638 30.4298C173.678 30.4641 173.702 30.5082 173.707 30.5548C173.707 30.5886 173.696 30.6218 173.674 30.6508C173.647 30.6868 173.614 30.72 173.577 30.7496L172.812 31.398C172.77 31.4369 172.71 31.4609 172.646 31.4648C172.599 31.4659 172.554 31.4547 172.516 31.4329L172.39 31.3544L172.346 31.3224C172.278 31.2759 172.206 31.2294 172.123 31.1799C172.038 31.1323 171.95 31.0886 171.859 31.0491C171.765 31.0107 171.667 30.9786 171.567 30.9532C171.465 30.9278 171.359 30.9151 171.253 30.9154C171.149 30.9139 171.045 30.9217 170.942 30.9386C170.854 30.9508 170.769 30.9743 170.69 31.0084C170.619 31.0372 170.558 31.0802 170.513 31.1334C170.468 31.1914 170.444 31.2584 170.444 31.3267C170.444 31.3951 170.468 31.462 170.513 31.5201C170.569 31.5827 170.64 31.6352 170.722 31.6742C170.836 31.7287 170.957 31.7726 171.083 31.805C171.22 31.8457 171.379 31.8922 171.563 31.9387C171.917 32.0357 172.242 32.1326 172.538 32.2295C172.815 32.3223 173.075 32.4455 173.31 32.5958C173.522 32.7313 173.695 32.9031 173.815 33.0988C173.945 33.3214 174.008 33.5653 173.999 33.8111C174.003 34.089 173.927 34.3638 173.775 34.6135C173.626 34.8509 173.416 35.06 173.158 35.227C172.883 35.4008 172.571 35.5337 172.238 35.6195C171.87 35.7118 171.487 35.7579 171.101 35.7561C170.715 35.7558 170.333 35.6997 169.972 35.5904C169.604 35.4829 169.256 35.3341 168.939 35.1485C168.82 35.0799 168.707 35.003 168.604 34.9188L168.384 34.7356C168.325 34.6939 168.284 34.6377 168.268 34.5757C168.274 34.5451 168.287 34.5157 168.306 34.4892C168.326 34.4627 168.353 34.4397 168.384 34.4216L169.246 33.7588C169.294 33.7257 169.353 33.7045 169.416 33.6977C169.45 33.699 169.484 33.707 169.513 33.721C169.533 33.7302 169.552 33.7399 169.571 33.75Z" fill="white"/>
</svg>
