<svg width="32" height="32" viewBox="0 0 32 32" fill="none" xmlns="http://www.w3.org/2000/svg">
<path d="M26.622 5.56381C24.1791 2.02819 20.3074 0 16.0005 0C11.6935 0 7.82184 2.02819 5.3789 5.56381C2.94796 9.08156 2.38665 13.5351 3.8744 17.4698C4.27234 18.5443 4.9049 19.5882 5.75002 20.5665L15.1486 31.6061C15.3612 31.856 15.6726 32 16.0005 32C16.3283 32 16.6397 31.8561 16.8523 31.6061L26.2483 20.5695C27.0971 19.5856 27.7289 18.5428 28.1235 17.4769C29.6143 13.5351 29.053 9.08156 26.622 5.56381ZM26.0283 16.6933C25.724 17.5157 25.2271 18.3288 24.5525 19.1108C24.5506 19.1127 24.5487 19.1146 24.5472 19.1168L16.0005 29.1554L7.44846 19.1105C6.77415 18.3291 6.27734 17.5161 5.97002 16.6859C4.73965 13.4318 5.20659 9.74956 7.21946 6.83638C9.23865 3.91388 12.4394 2.23775 16.0005 2.23775C19.5615 2.23775 22.7618 3.91381 24.7811 6.83638C26.7943 9.74956 27.2616 13.4318 26.0283 16.6933Z" fill="#F29F05"/>
<path d="M16.0005 6.63867C12.5457 6.63867 9.73471 9.4493 9.73471 12.9044C9.73471 16.3595 12.5453 19.1702 16.0005 19.1702C19.4556 19.1702 22.2662 16.3595 22.2662 12.9044C22.2662 9.44967 19.4552 6.63867 16.0005 6.63867ZM16.0005 16.9324C13.7795 16.9324 11.9725 15.1254 11.9725 12.9044C11.9725 10.6834 13.7795 8.87636 16.0005 8.87636C18.2215 8.87636 20.0285 10.6834 20.0285 12.9044C20.0285 15.1254 18.2215 16.9324 16.0005 16.9324Z" fill="#F29F05"/>
</svg>
