<svg width="470" height="217" viewBox="0 0 470 217" fill="none" xmlns="http://www.w3.org/2000/svg">
<g filter="url(#filter0_d)">
<g clip-path="url(#clip0)">
<path d="M63.2037 48.3677C87.2667 30.1361 113.514 41.8331 125.909 57.1147C155.778 57.8429 303.796 65.8618 303.796 65.8618L111.339 67.3181C111.339 67.3181 100.409 48.3677 63.2037 48.3677Z" fill="white"/>
<path d="M109.155 168.698C138.314 171.61 145.259 159.213 155.825 143.904C181.278 143.176 303.824 135.343 303.824 135.343L139.929 133.887C139.929 133.887 135.402 164.301 109.155 168.698Z" fill="white"/>
<path d="M98.9435 34.505C59.8248 23.6295 36.2098 73.9834 55.2045 120.547C77.802 175.97 131.024 190.188 151.438 159.923L160.529 170.192C161.262 171.02 161.695 172.071 161.758 173.175C161.821 174.279 161.509 175.372 160.874 176.278L155.386 184.138C155.065 184.596 154.654 184.983 154.179 185.277C153.704 185.571 153.174 185.765 152.622 185.848C152.069 185.931 151.506 185.901 150.965 185.759C150.425 185.618 149.919 185.368 149.478 185.025L139.742 177.426C137.752 180.263 135.282 182.73 132.443 184.717L134.767 197.478C134.934 198.404 134.776 199.359 134.32 200.182C133.864 201.005 133.139 201.646 132.266 201.997L124.369 205.161C123.382 205.555 122.285 205.573 121.285 205.212C120.286 204.85 119.453 204.135 118.946 203.201L113.458 193.072C109.144 193.839 104.742 193.971 100.39 193.464L99.4568 202.865C99.3928 203.514 99.191 204.142 98.8648 204.707C98.5387 205.272 98.0958 205.76 97.5657 206.14C97.0355 206.52 96.4304 206.783 95.7908 206.91C95.1511 207.037 94.4916 207.027 93.8564 206.879L83.6637 204.526C82.5937 204.278 81.6292 203.699 80.907 202.871C80.1849 202.043 79.7418 201.009 79.6408 199.915L78.4834 187.191C73.8864 185.337 69.6211 182.749 65.8545 179.527L59.5448 187.088C59.1774 187.528 58.7224 187.887 58.2087 188.141C57.6951 188.395 57.1341 188.54 56.5616 188.565C55.989 188.591 55.4174 188.497 54.8832 188.289C54.3491 188.081 53.864 187.765 53.459 187.359L44.9371 178.836C44.0711 177.969 43.4559 176.884 43.1568 175.696C42.8577 174.507 42.8859 173.26 43.2383 172.087L46.4492 161.389C46.4492 161.389 40.1768 154.154 37.6939 146.798L28.0053 147.881C27.0141 147.985 26.0154 147.77 25.1555 147.266C24.2955 146.762 23.6195 145.996 23.2263 145.08L17.1499 130.928C16.7787 130.054 16.716 129.079 16.9722 128.165C17.2283 127.25 17.7881 126.45 18.5593 125.896L26.0265 120.547C24.6523 114.299 23.6796 107.969 23.1143 101.597L12.1095 95.473C11.47 95.1158 10.9373 94.5944 10.5665 93.9626C10.1957 93.3308 10.0001 92.6115 10.0001 91.8789V73.8901C10.0016 73.5404 10.0814 73.1956 10.2335 72.8808C10.3857 72.566 10.6063 72.2893 10.8793 72.0709C11.1523 71.8525 11.4707 71.6979 11.8112 71.6186C12.1516 71.5392 12.5055 71.5371 12.8469 71.6123L23.8703 74.0581C24.4765 68.9266 25.4877 63.8511 26.8945 58.8791L17.2619 45.2871C16.8327 44.6797 16.5824 43.964 16.5395 43.2214C16.4966 42.4789 16.6628 41.7391 17.0192 41.0863L23.1796 29.7814C23.3447 29.4774 23.5772 29.2151 23.8592 29.0148C24.1412 28.8144 24.4653 28.6812 24.8066 28.6253C25.148 28.5695 25.4977 28.5924 25.8288 28.6925C26.16 28.7926 26.4638 28.9671 26.7172 29.2026L38.1887 39.8727C40.4303 36.9786 43.2458 34.5791 46.4585 32.8247L42.8556 16.2081C42.7546 15.742 42.747 15.2606 42.8334 14.7916C42.9198 14.3226 43.0984 13.8754 43.3589 13.476C43.6193 13.0766 43.9565 12.7328 44.3508 12.4647C44.7451 12.1965 45.1887 12.0093 45.6558 11.9139L54.9898 10.0469C55.4549 9.95154 55.9385 10.0124 56.3655 10.22C56.7924 10.4276 57.139 10.7704 57.3513 11.1951L65.3598 27.2142C69.9484 26.8335 74.5675 27.0784 79.0901 27.9424L79.7621 15.928C79.7906 15.5668 79.9059 15.2178 80.0982 14.9107C80.2905 14.6036 80.5541 14.3475 80.8666 14.1642C81.1792 13.9808 81.5313 13.8757 81.8932 13.8578C82.2551 13.8398 82.6159 13.9095 82.945 14.061L98.8968 21.4264L98.9435 34.505Z" fill="white"/>
<path d="M116.127 113.863H130.128C130.5 113.849 130.864 113.968 131.155 114.199C131.297 114.335 131.407 114.502 131.476 114.686C131.546 114.87 131.573 115.067 131.556 115.263V122.498C131.553 122.901 131.403 123.289 131.136 123.59C131.012 123.746 130.854 123.871 130.675 123.957C130.496 124.042 130.299 124.086 130.1 124.085H101.473C101.269 124.082 101.068 124.037 100.882 123.954C100.695 123.87 100.528 123.75 100.39 123.6C100.234 123.462 100.109 123.293 100.023 123.103C99.938 122.913 99.8944 122.706 99.8955 122.498V117.831C99.8936 117.537 99.9675 117.247 100.11 116.99L118.974 94.4647C119.401 94.0574 119.735 93.5633 119.954 93.0157C120.173 92.4681 120.272 91.8798 120.244 91.2907C120.258 90.6455 120.12 90.0061 119.842 89.4237C119.584 88.9068 119.226 88.4466 118.787 88.0701C118.351 87.7125 117.855 87.4344 117.322 87.2486C116.794 87.0637 116.239 86.969 115.679 86.9685C115.074 86.9669 114.476 87.0942 113.924 87.3419C113.372 87.6032 112.875 87.9676 112.459 88.4155C112.043 88.8419 111.705 89.3379 111.46 89.8811C111.219 90.4119 111.091 90.9876 111.087 91.5708V93.2791C111.074 93.6488 110.932 94.0024 110.686 94.278C110.545 94.4432 110.368 94.5738 110.169 94.6596C109.97 94.7454 109.754 94.7841 109.537 94.7727H101.585C101.387 94.7883 101.189 94.7557 101.007 94.6776C100.825 94.5996 100.664 94.4784 100.54 94.3246C100.339 94.0553 100.234 93.7268 100.241 93.3911V91.8228C100.214 89.8305 100.6 87.8543 101.376 86.0193C102.152 84.1842 103.301 82.5302 104.749 81.1621C106.152 79.8646 107.786 78.8419 109.565 78.1468C111.447 77.4057 113.452 77.0288 115.474 77.0359C117.557 77.028 119.626 77.3687 121.597 78.0441C123.473 78.6915 125.216 79.6753 126.74 80.9473C128.217 82.1791 129.422 83.7051 130.278 85.4282C131.177 87.2565 131.631 89.2718 131.603 91.3094C131.609 92.3748 131.471 93.4362 131.192 94.4647C130.933 95.4318 130.577 96.3701 130.128 97.2652C129.683 98.0899 129.171 98.8767 128.597 99.6177C128.028 100.374 127.44 101.093 126.815 101.774L116.127 113.863Z" fill="white"/>
<path d="M131.603 101.055C131.597 98.9236 131.88 96.8008 132.443 94.7448C132.983 92.7518 133.787 90.8399 134.833 89.0596C135.866 87.301 137.121 85.6821 138.566 84.2427C139.994 82.7926 141.608 81.5371 143.364 80.5086C145.142 79.4854 147.043 78.6918 149.02 78.1468C153.152 77.0016 157.517 77.0016 161.649 78.1468C163.638 78.6974 165.548 79.5005 167.333 80.5366C169.091 81.5673 170.707 82.8226 172.14 84.2707C173.586 85.7095 174.841 87.3285 175.874 89.0876C176.908 90.8737 177.711 92.784 178.264 94.7728C179.408 98.9082 179.408 103.277 178.264 107.413C177.711 109.392 176.908 111.293 175.874 113.07C174.838 114.816 173.584 116.422 172.14 117.849C170.702 119.292 169.087 120.547 167.333 121.583C165.552 122.627 163.641 123.431 161.649 123.973C157.603 125.096 153.331 125.123 149.272 124.05C145.212 122.977 141.511 120.843 138.548 117.868C137.105 116.44 135.85 114.834 134.814 113.088C133.768 111.318 132.965 109.415 132.424 107.431C131.862 105.353 131.585 103.208 131.603 101.055ZM143.345 101.055C143.339 102.722 143.656 104.373 144.279 105.919C144.865 107.38 145.727 108.714 146.817 109.849C147.936 110.995 149.272 111.906 150.747 112.528C152.223 113.15 153.808 113.471 155.409 113.471C157.011 113.471 158.596 113.15 160.071 112.528C161.547 111.906 162.883 110.995 164.001 109.849C166.262 107.483 167.511 104.328 167.483 101.055C167.519 97.7497 166.275 94.5583 164.011 92.1496C162.919 91.0108 161.612 90.1001 160.165 89.4704C158.657 88.8258 157.035 88.4935 155.395 88.4935C153.756 88.4935 152.133 88.8258 150.626 89.4704C149.186 90.1025 147.885 91.013 146.799 92.1496C145.706 93.3003 144.844 94.6503 144.26 96.1264C143.643 97.6862 143.333 99.3501 143.345 101.027V101.055Z" fill="white"/>
<path d="M195.027 113.863H209.028C209.397 113.848 209.759 113.968 210.046 114.199C210.19 114.334 210.301 114.5 210.372 114.685C210.443 114.869 210.472 115.067 210.456 115.263V122.498C210.453 122.901 210.303 123.289 210.036 123.59C209.911 123.747 209.752 123.872 209.57 123.958C209.389 124.044 209.191 124.087 208.991 124.085H180.354C180.15 124.082 179.949 124.037 179.763 123.954C179.577 123.87 179.41 123.75 179.272 123.6C179.114 123.463 178.987 123.293 178.9 123.103C178.814 122.913 178.768 122.707 178.768 122.498V117.831C178.769 117.536 178.846 117.247 178.992 116.99L197.846 94.4647C198.276 94.0594 198.613 93.5658 198.834 93.0179C199.054 92.47 199.154 91.8807 199.125 91.2907C199.142 90.6778 199.018 90.0691 198.764 89.5111C198.51 88.953 198.133 88.4602 197.66 88.0701C197.228 87.7108 196.734 87.4325 196.203 87.2486C195.675 87.0637 195.12 86.969 194.561 86.9685C193.953 86.9678 193.352 87.0951 192.797 87.3419C192.255 87.6077 191.768 87.9717 191.359 88.4155C190.943 88.8419 190.605 89.3379 190.36 89.8811C190.114 90.4104 189.987 90.9871 189.987 91.5708V93.2791C189.974 93.6488 189.832 94.0024 189.586 94.278C189.445 94.4432 189.269 94.5738 189.069 94.6596C188.87 94.7454 188.654 94.7841 188.438 94.7727H180.476C180.277 94.7956 180.077 94.7692 179.891 94.696C179.705 94.6227 179.541 94.5048 179.412 94.3526C179.206 94.0857 179.101 93.7556 179.113 93.4191V91.8228C179.088 89.7647 179.502 87.7248 180.326 85.839C181.099 84.0772 182.22 82.4896 183.621 81.1714C185.029 79.8637 186.673 78.8371 188.466 78.1468C190.349 77.4145 192.354 77.047 194.374 77.0639C196.454 77.0554 198.521 77.3962 200.488 78.0721C202.364 78.7068 204.107 79.6814 205.631 80.9473C207.114 82.1761 208.322 83.7026 209.178 85.4282C210.074 87.2573 210.525 89.2726 210.494 91.3094C210.503 92.3744 210.368 93.4358 210.092 94.4647C209.834 95.4334 209.475 96.3722 209.019 97.2652C208.58 98.0916 208.071 98.8787 207.498 99.6177C206.928 100.374 206.331 101.093 205.715 101.774L195.027 113.863Z" fill="white"/>
<path d="M210.494 101.055C210.48 96.8389 211.599 92.6962 213.733 89.0596C214.769 87.3028 216.023 85.6843 217.466 84.2427C218.9 82.7946 220.516 81.5393 222.273 80.5086C224.045 79.4862 225.939 78.6926 227.911 78.1468C232.046 77.0018 236.414 77.0018 240.549 78.1468C242.538 78.6991 244.448 79.5022 246.233 80.5366C247.99 81.5652 249.603 82.8206 251.031 84.2707C252.48 85.7074 253.735 87.3266 254.765 89.0876C255.795 90.8756 256.598 92.7855 257.154 94.7728C258.287 98.9099 258.287 103.275 257.154 107.413C256.598 109.391 255.795 111.292 254.765 113.07C253.732 114.817 252.477 116.424 251.031 117.849C249.598 119.294 247.986 120.549 246.233 121.583C242.594 123.71 238.455 124.831 234.239 124.831C230.024 124.831 225.885 123.71 222.245 121.583C218.733 119.52 215.803 116.597 213.733 113.088C212.688 111.316 211.881 109.414 211.334 107.431C210.765 105.354 210.482 103.209 210.494 101.055ZM222.245 101.055C222.239 102.722 222.556 104.373 223.179 105.919C223.762 107.379 224.621 108.713 225.708 109.849C226.793 110.969 228.087 111.867 229.516 112.491C231.751 113.457 234.226 113.721 236.615 113.25C239.003 112.778 241.192 111.592 242.892 109.849C243.985 108.714 244.85 107.38 245.44 105.919C246.071 104.376 246.389 102.722 246.374 101.055C246.385 99.3885 246.068 97.7358 245.44 96.1917C244.855 94.6905 243.983 93.3176 242.873 92.1496C241.786 91.0091 240.482 90.0981 239.037 89.4704C237.529 88.8258 235.907 88.4935 234.267 88.4935C232.628 88.4935 231.005 88.8258 229.498 89.4704C228.067 90.108 226.773 91.0179 225.689 92.1496C224.599 93.3008 223.74 94.6509 223.16 96.1264C222.543 97.6862 222.233 99.3501 222.245 101.027V101.055Z" fill="white"/>
<path d="M272.471 81.1154C272.488 81.0543 272.516 80.9971 272.555 80.9474C272.608 80.8846 272.667 80.8282 272.733 80.7794C272.799 80.7296 272.871 80.6888 272.947 80.658C273.021 80.6449 273.097 80.6449 273.171 80.658H276.476C276.613 80.6564 276.746 80.7063 276.849 80.798C276.933 80.8688 277.012 80.9469 277.082 81.0314L277.4 81.7689L284.176 99.2443C284.216 99.3071 284.237 99.38 284.237 99.4544C284.237 99.5288 284.216 99.6016 284.176 99.6644C284.11 99.7253 284.032 99.7711 283.946 99.7985C283.861 99.8259 283.77 99.8343 283.681 99.8231H279.948C279.789 99.8284 279.632 99.793 279.49 99.7204C279.371 99.6237 279.284 99.4937 279.238 99.347C279.07 98.9083 278.902 98.4695 278.744 98.0401C278.585 97.6107 278.408 97.1626 278.249 96.7238H271.351L270.857 98.0401L270.352 99.347C270.314 99.4891 270.229 99.6138 270.11 99.7004C269.991 99.787 269.846 99.8303 269.699 99.8231H265.891C265.745 99.8316 265.602 99.785 265.489 99.6924C265.435 99.6469 265.398 99.5833 265.386 99.5131C265.374 99.4429 265.388 99.3708 265.424 99.3097L272.471 81.1154ZM274.823 86.6418C274.655 87.0806 274.487 87.5754 274.319 88.0608C274.151 88.5462 273.993 89.0783 273.825 89.5918C273.657 90.1052 273.498 90.6186 273.33 91.1227C273.162 91.6268 272.994 92.0562 272.835 92.5417H276.793L274.823 86.6418Z" fill="white"/>
<path d="M289.739 92.1496C289.722 92.7027 289.811 93.2539 290 93.7739C290.153 94.1811 290.392 94.5505 290.701 94.8568C290.987 95.1346 291.331 95.3451 291.709 95.4729C292.094 95.6028 292.497 95.669 292.903 95.6689C293.321 95.6714 293.736 95.5954 294.126 95.4449C294.503 95.2898 294.846 95.0613 295.134 94.7727C295.437 94.4531 295.672 94.0752 295.825 93.6619C296.001 93.1774 296.086 92.6648 296.077 92.1496V81.1807C296.074 81.1065 296.086 81.0324 296.114 80.9632C296.141 80.8941 296.183 80.8314 296.236 80.7793C296.291 80.7224 296.358 80.678 296.432 80.6491C296.506 80.6201 296.586 80.6072 296.665 80.6113H300.399C300.484 80.6061 300.571 80.6192 300.651 80.6497C300.731 80.6803 300.804 80.7277 300.865 80.7887C300.918 80.8392 300.961 80.9001 300.989 80.9675C301.018 81.0349 301.033 81.1074 301.033 81.1807V92.0655C301.071 93.3616 300.842 94.6516 300.361 95.8556C299.972 96.8103 299.361 97.6584 298.578 98.3294C297.818 98.9616 296.93 99.4204 295.974 99.6737C294.964 99.9466 293.922 100.082 292.875 100.075C291.825 100.079 290.779 99.9381 289.767 99.655C288.81 99.3895 287.919 98.9251 287.154 98.2921C286.375 97.6137 285.765 96.7636 285.371 95.8089C284.897 94.6227 284.671 93.3518 284.708 92.0749V81.1807C284.705 81.0356 284.759 80.8951 284.857 80.7887C284.899 80.732 284.954 80.6863 285.018 80.6555C285.081 80.6246 285.151 80.6094 285.221 80.6113H289.086C289.234 80.6212 289.376 80.6804 289.487 80.7793C289.553 80.8236 289.607 80.8833 289.644 80.9533C289.682 81.0233 289.702 81.1014 289.702 81.1807L289.739 92.1496Z" fill="white"/>
<path d="M301.827 81.1807C301.822 81.1031 301.835 81.0255 301.866 80.9542C301.897 80.8828 301.944 80.8197 302.004 80.77C302.122 80.6647 302.275 80.608 302.433 80.6113H316.322C316.471 80.6105 316.616 80.6599 316.733 80.7513C316.795 80.8046 316.846 80.8704 316.881 80.9443C316.916 81.0183 316.936 81.0988 316.938 81.1807V84.3827C316.934 84.545 316.878 84.7017 316.78 84.8308C316.725 84.8988 316.655 84.9528 316.576 84.9885C316.496 85.0242 316.409 85.0406 316.322 85.0362H311.87V99.1696C311.871 99.3263 311.811 99.4771 311.702 99.5897C311.648 99.6517 311.58 99.7007 311.504 99.733C311.428 99.7653 311.346 99.7801 311.263 99.7764H307.483C307.327 99.7739 307.178 99.7141 307.063 99.6084C307.003 99.5523 306.955 99.4843 306.923 99.4088C306.891 99.3332 306.875 99.2517 306.876 99.1696V85.0362H302.433C302.354 85.0385 302.275 85.0249 302.201 84.996C302.128 84.9671 302.06 84.9236 302.004 84.8681C301.94 84.8053 301.892 84.7292 301.861 84.6452C301.83 84.5613 301.819 84.4717 301.827 84.3827V81.1807Z" fill="white"/>
<path d="M315.893 90.2172C315.893 88.4631 316.357 86.7401 317.237 85.2229C317.666 84.4933 318.183 83.8193 318.777 83.2159C319.39 82.617 320.077 82.0994 320.821 81.6755C321.564 81.2492 322.358 80.9169 323.183 80.686C324.899 80.2131 326.712 80.2131 328.428 80.686C329.254 80.9152 330.048 81.2477 330.79 81.6755C331.521 82.1025 332.195 82.62 332.797 83.2159C333.39 83.8193 333.908 84.4933 334.337 85.2229C334.765 85.9651 335.098 86.7587 335.326 87.5847C335.812 89.303 335.812 91.1222 335.326 92.8404C335.101 93.6646 334.769 94.4556 334.337 95.1929C333.91 95.9182 333.392 96.5863 332.797 97.1813C332.179 97.7671 331.489 98.2722 330.743 98.6842C329.605 99.3468 328.346 99.7757 327.039 99.9456C325.733 100.115 324.406 100.023 323.136 99.6737C320.656 98.9941 318.54 97.3729 317.237 95.1555C316.801 94.4204 316.468 93.6288 316.248 92.8031C316.014 91.9609 315.895 91.0912 315.893 90.2172ZM320.887 90.2172C320.881 90.9032 321.005 91.584 321.251 92.2243C321.481 92.8219 321.823 93.37 322.259 93.8393C322.951 94.5568 323.844 95.0473 324.821 95.2457C325.798 95.4441 326.811 95.341 327.728 94.9502C328.312 94.7014 328.837 94.3324 329.268 93.8673C329.71 93.401 330.056 92.8522 330.286 92.2523C330.758 90.9624 330.758 89.5467 330.286 88.2568C330.065 87.6247 329.719 87.0437 329.268 86.5485C328.836 86.0799 328.312 85.705 327.728 85.447C326.816 85.0373 325.798 84.9232 324.817 85.1207C323.836 85.3183 322.942 85.8175 322.259 86.5485C321.823 87.0246 321.481 87.5789 321.251 88.1822C321.003 88.8252 320.879 89.5095 320.887 90.1986V90.2172Z" fill="white"/>
<path d="M265.938 105.975C265.936 105.896 265.951 105.818 265.981 105.746C266.012 105.674 266.058 105.609 266.115 105.555C266.234 105.452 266.387 105.399 266.544 105.405H280.433C280.582 105.403 280.727 105.453 280.844 105.546C280.907 105.598 280.957 105.664 280.993 105.738C281.028 105.812 281.047 105.893 281.049 105.975V109.177C281.049 109.337 280.993 109.492 280.891 109.616C280.839 109.687 280.769 109.744 280.689 109.782C280.61 109.819 280.521 109.836 280.433 109.83H276.018V123.964C276.019 124.12 275.959 124.271 275.85 124.384C275.795 124.445 275.727 124.494 275.652 124.526C275.576 124.559 275.494 124.574 275.411 124.571H271.631C271.554 124.57 271.478 124.554 271.408 124.524C271.337 124.493 271.273 124.449 271.221 124.393C271.158 124.341 271.108 124.275 271.074 124.201C271.04 124.126 271.023 124.045 271.025 123.964V109.83H266.582C266.502 109.833 266.424 109.819 266.35 109.79C266.276 109.761 266.209 109.718 266.152 109.662C266.091 109.598 266.044 109.521 266.013 109.438C265.983 109.354 265.97 109.266 265.975 109.177L265.938 105.975Z" fill="white"/>
<path d="M282.263 106.003C282.252 105.843 282.306 105.685 282.412 105.564C282.467 105.509 282.532 105.467 282.605 105.439C282.677 105.412 282.755 105.4 282.832 105.405H291.167C292.023 105.401 292.87 105.569 293.659 105.9C294.413 106.222 295.1 106.681 295.685 107.254C296.277 107.829 296.747 108.516 297.068 109.277C297.389 110.037 297.553 110.854 297.552 111.679C297.555 112.244 297.477 112.807 297.318 113.35C297.164 113.873 296.937 114.372 296.646 114.834C296.366 115.293 296.027 115.714 295.638 116.085C295.247 116.445 294.814 116.759 294.35 117.018L297.673 123.264C297.742 123.411 297.82 123.555 297.906 123.693C297.989 123.818 298.037 123.963 298.046 124.113C298.05 124.173 298.039 124.233 298.014 124.289C297.99 124.344 297.953 124.392 297.906 124.431C297.802 124.51 297.673 124.55 297.542 124.543H293.118C292.976 124.544 292.838 124.498 292.726 124.412C292.609 124.329 292.526 124.206 292.493 124.066L289.356 118.167H287.219V123.992C287.219 124.356 287.023 124.543 286.631 124.543H282.832C282.682 124.55 282.535 124.5 282.421 124.403C282.365 124.351 282.322 124.287 282.295 124.215C282.267 124.144 282.256 124.068 282.263 123.992V106.003ZM292.371 111.753C292.369 111.489 292.322 111.227 292.231 110.979C292.135 110.723 291.999 110.484 291.83 110.269C291.653 110.055 291.442 109.872 291.205 109.728C290.96 109.585 290.691 109.49 290.411 109.448H289.73H289.039H287.219V114.181H290.019H290.42C290.708 114.15 290.985 114.058 291.233 113.91C291.465 113.774 291.671 113.597 291.839 113.387C292.002 113.173 292.128 112.933 292.213 112.678C292.32 112.381 292.374 112.068 292.371 111.753Z" fill="white"/>
<path d="M303.945 105.91C303.958 105.847 303.987 105.789 304.029 105.742C304.077 105.674 304.137 105.617 304.207 105.574C304.271 105.521 304.343 105.48 304.421 105.452C304.496 105.439 304.571 105.439 304.645 105.452H307.95C308.086 105.451 308.217 105.498 308.323 105.583C308.406 105.659 308.484 105.74 308.556 105.826L308.874 106.563L315.65 124.039C315.69 124.101 315.711 124.174 315.711 124.249C315.711 124.323 315.69 124.396 315.65 124.459C315.583 124.517 315.504 124.562 315.419 124.589C315.334 124.617 315.244 124.626 315.156 124.617H311.422C311.262 124.626 311.103 124.587 310.965 124.505C310.847 124.411 310.76 124.284 310.713 124.141C310.545 123.702 310.377 123.264 310.218 122.834C310.059 122.405 309.882 121.957 309.723 121.518H302.872L302.377 122.834L301.873 124.141C301.835 124.283 301.749 124.408 301.631 124.495C301.512 124.581 301.367 124.624 301.22 124.617H297.412C297.264 124.621 297.119 124.575 297.001 124.487C296.949 124.439 296.916 124.375 296.905 124.305C296.895 124.235 296.909 124.164 296.945 124.104L303.945 105.91ZM306.298 111.436C306.13 111.875 305.962 112.37 305.794 112.855C305.626 113.34 305.467 113.873 305.299 114.386C305.131 114.899 304.972 115.413 304.804 115.917C304.636 116.421 304.468 116.85 304.309 117.327H308.267L306.298 111.436Z" fill="white"/>
<path d="M316.332 105.975C316.328 105.828 316.377 105.686 316.472 105.574C316.526 105.515 316.593 105.47 316.667 105.441C316.742 105.411 316.821 105.399 316.901 105.405H321.12C321.25 105.407 321.378 105.439 321.493 105.499C321.634 105.565 321.752 105.672 321.829 105.807C322.924 107.574 324.007 109.311 325.078 111.016C326.16 112.734 327.243 114.47 328.344 116.234V105.891C328.372 105.753 328.445 105.629 328.55 105.536C328.653 105.452 328.781 105.406 328.914 105.405H332.591C332.757 105.397 332.92 105.45 333.049 105.555C333.108 105.607 333.155 105.672 333.186 105.745C333.216 105.817 333.23 105.896 333.226 105.975V124.067C333.23 124.138 333.218 124.21 333.191 124.276C333.163 124.342 333.121 124.402 333.067 124.449C332.946 124.537 332.797 124.58 332.647 124.571H328.531C328.421 124.572 328.314 124.532 328.232 124.459C328.133 124.361 328.043 124.254 327.962 124.141C326.814 122.274 325.684 120.407 324.564 118.54C323.444 116.673 322.315 114.806 321.157 112.939V124.02C321.171 124.099 321.165 124.181 321.14 124.258C321.115 124.335 321.072 124.404 321.014 124.46C320.956 124.516 320.885 124.558 320.808 124.58C320.73 124.603 320.648 124.606 320.569 124.589H316.901C316.822 124.596 316.743 124.586 316.668 124.558C316.594 124.531 316.527 124.487 316.472 124.431C316.379 124.321 316.33 124.182 316.332 124.039V105.975Z" fill="white"/>
<path d="M337.912 118.372L338.472 118.857C338.719 119.078 338.981 119.28 339.256 119.464C339.663 119.736 340.098 119.965 340.553 120.146C340.987 120.306 341.445 120.388 341.907 120.388C342.283 120.399 342.658 120.349 343.018 120.239C343.277 120.162 343.516 120.028 343.718 119.847C343.886 119.692 344.011 119.496 344.082 119.278C344.157 119.058 344.195 118.828 344.194 118.596C344.191 118.327 344.084 118.069 343.895 117.877C343.671 117.659 343.42 117.471 343.148 117.317C342.847 117.156 342.535 117.015 342.215 116.897L341.384 116.608C340.452 116.293 339.546 115.903 338.677 115.441C337.968 115.076 337.316 114.607 336.745 114.05C336.248 113.57 335.851 112.995 335.578 112.36C335.317 111.707 335.187 111.009 335.196 110.306C335.184 109.55 335.35 108.802 335.681 108.122C336.006 107.466 336.479 106.894 337.062 106.451C337.709 105.962 338.44 105.595 339.219 105.368C340.129 105.11 341.072 104.984 342.019 104.995C342.776 104.99 343.532 105.078 344.268 105.256C345.013 105.442 345.729 105.728 346.396 106.106C346.686 106.274 346.966 106.451 347.227 106.638C347.489 106.824 347.722 107.002 347.918 107.17C348.091 107.318 348.247 107.483 348.385 107.665C348.487 107.775 348.549 107.916 348.562 108.066C348.563 108.174 348.534 108.281 348.478 108.374C348.407 108.49 348.322 108.596 348.226 108.691L346.294 110.82C346.238 110.883 346.171 110.934 346.096 110.971C346.021 111.008 345.939 111.03 345.855 111.035C345.738 111.038 345.623 111.002 345.528 110.932L345.202 110.68L345.08 110.577C344.912 110.428 344.716 110.278 344.511 110.12C344.292 109.967 344.065 109.827 343.83 109.7C343.587 109.576 343.334 109.473 343.074 109.392C342.811 109.31 342.537 109.269 342.261 109.27C341.992 109.266 341.723 109.291 341.459 109.345C341.228 109.385 341.004 109.461 340.796 109.569C340.616 109.664 340.462 109.802 340.348 109.97C340.231 110.154 340.173 110.369 340.18 110.586C340.178 110.808 340.239 111.025 340.357 111.212C340.507 111.411 340.694 111.579 340.908 111.707C341.202 111.882 341.515 112.023 341.841 112.127C342.196 112.257 342.607 112.407 343.083 112.556C343.998 112.867 344.838 113.179 345.603 113.49C346.32 113.788 346.992 114.183 347.601 114.666C348.15 115.101 348.597 115.652 348.907 116.281C349.242 116.996 349.406 117.779 349.383 118.568C349.396 119.462 349.194 120.345 348.795 121.145C348.415 121.908 347.874 122.58 347.208 123.114C346.496 123.672 345.69 124.099 344.828 124.375C343.874 124.672 342.879 124.82 341.879 124.813C340.884 124.812 339.897 124.632 338.967 124.281C338.015 123.936 337.116 123.458 336.297 122.862C335.986 122.639 335.693 122.393 335.42 122.125L334.86 121.537C334.707 121.403 334.602 121.222 334.561 121.023C334.575 120.925 334.608 120.83 334.66 120.745C334.711 120.66 334.779 120.587 334.86 120.528L337.09 118.4C337.215 118.294 337.367 118.226 337.529 118.204C337.618 118.208 337.704 118.234 337.781 118.279C337.825 118.309 337.869 118.34 337.912 118.372Z" fill="white"/>
<path d="M351.558 105.975C351.575 105.824 351.641 105.684 351.745 105.574C351.802 105.516 351.87 105.471 351.946 105.442C352.022 105.413 352.103 105.401 352.183 105.405H356.645C356.79 105.398 356.933 105.443 357.048 105.532C357.163 105.621 357.242 105.749 357.27 105.891L360.78 117.616L364.308 105.891C364.348 105.747 364.435 105.621 364.555 105.533C364.676 105.445 364.822 105.4 364.971 105.405H369.358C369.512 105.409 369.66 105.465 369.778 105.564C369.838 105.615 369.887 105.678 369.922 105.749C369.958 105.819 369.978 105.896 369.983 105.975C370.288 109 370.599 112.002 370.917 114.983C371.234 117.964 371.545 120.97 371.85 124.001V124.067C371.85 124.403 371.663 124.571 371.281 124.571H367.631C367.552 124.582 367.471 124.575 367.394 124.551C367.317 124.527 367.247 124.487 367.188 124.432C367.129 124.378 367.083 124.311 367.053 124.236C367.023 124.162 367.01 124.081 367.015 124.001L365.886 114.022L362.983 124.067C362.952 124.185 362.887 124.292 362.796 124.375C362.76 124.427 362.713 124.471 362.659 124.504C362.604 124.536 362.542 124.556 362.479 124.561H359.091C358.963 124.546 358.846 124.482 358.764 124.384C358.662 124.307 358.595 124.193 358.577 124.067L355.665 114.05L354.545 124.001C354.545 124.384 354.321 124.571 353.91 124.571H350.261C350.184 124.58 350.107 124.572 350.034 124.547C349.962 124.521 349.896 124.479 349.843 124.424C349.789 124.368 349.749 124.302 349.726 124.228C349.703 124.155 349.698 124.077 349.71 124.001L351.558 105.975Z" fill="white"/>
<path d="M373.4 105.975C373.395 105.829 373.445 105.686 373.54 105.574C373.592 105.515 373.657 105.47 373.73 105.441C373.803 105.412 373.881 105.4 373.96 105.406H377.759C377.908 105.41 378.052 105.463 378.169 105.555C378.239 105.6 378.296 105.663 378.335 105.736C378.374 105.81 378.394 105.892 378.393 105.975V124.001C378.393 124.384 378.179 124.571 377.759 124.571H373.96C373.883 124.582 373.804 124.575 373.73 124.55C373.657 124.525 373.59 124.484 373.535 124.428C373.481 124.373 373.44 124.305 373.416 124.231C373.393 124.157 373.387 124.078 373.4 124.001V105.975Z" fill="white"/>
<path d="M383.023 118.372L383.583 118.858C383.833 119.073 384.095 119.276 384.367 119.464C384.776 119.739 385.214 119.967 385.674 120.146C386.107 120.307 386.565 120.389 387.027 120.388C387.4 120.399 387.772 120.349 388.128 120.239C388.39 120.167 388.63 120.032 388.828 119.847C389 119.692 389.128 119.496 389.202 119.278C389.27 119.057 389.304 118.827 389.305 118.596C389.305 118.462 389.279 118.33 389.228 118.206C389.177 118.083 389.101 117.971 389.006 117.877C388.784 117.657 388.533 117.469 388.259 117.317C387.958 117.156 387.646 117.015 387.326 116.897L386.504 116.608C385.568 116.295 384.66 115.904 383.788 115.441C383.079 115.076 382.427 114.607 381.856 114.05C381.355 113.567 380.959 112.987 380.692 112.344C380.426 111.702 380.294 111.011 380.307 110.316C380.287 109.571 380.447 108.832 380.772 108.161C381.096 107.491 381.577 106.907 382.173 106.46C382.82 105.972 383.551 105.605 384.33 105.378C385.24 105.12 386.183 104.994 387.13 105.004C387.887 105 388.643 105.087 389.379 105.266C390.124 105.452 390.839 105.737 391.507 106.115C391.797 106.283 392.077 106.46 392.338 106.647C392.599 106.834 392.833 107.011 393.029 107.179C393.202 107.33 393.361 107.495 393.505 107.674C393.601 107.787 393.66 107.927 393.673 108.075C393.674 108.184 393.645 108.29 393.589 108.383C393.518 108.499 393.433 108.606 393.337 108.701L391.414 110.82C391.3 110.944 391.143 111.021 390.975 111.035C390.855 111.038 390.737 111.002 390.639 110.932L390.313 110.68L390.201 110.577C390.023 110.428 389.837 110.278 389.622 110.12C389.406 109.967 389.182 109.827 388.95 109.7C388.704 109.576 388.448 109.473 388.184 109.392C387.921 109.31 387.648 109.269 387.372 109.27C387.103 109.266 386.834 109.291 386.57 109.345C386.341 109.384 386.121 109.46 385.916 109.569C385.732 109.661 385.575 109.8 385.459 109.97C385.343 110.157 385.282 110.372 385.282 110.591C385.282 110.811 385.343 111.026 385.459 111.212C385.605 111.411 385.789 111.579 386 111.707C386.296 111.878 386.609 112.019 386.934 112.127C387.288 112.258 387.708 112.407 388.175 112.556C389.109 112.864 389.93 113.182 390.705 113.49C391.418 113.79 392.086 114.186 392.693 114.666C393.243 115.103 393.692 115.654 394.009 116.281C394.337 116.998 394.496 117.78 394.476 118.568C394.486 119.46 394.288 120.343 393.897 121.145C393.51 121.907 392.966 122.578 392.301 123.114C391.59 123.675 390.784 124.102 389.921 124.375C388.969 124.671 387.977 124.819 386.98 124.813C385.983 124.811 384.993 124.631 384.059 124.281C383.108 123.934 382.209 123.456 381.389 122.862C381.079 122.642 380.789 122.395 380.521 122.125C380.279 121.882 380.092 121.686 379.961 121.537C379.808 121.404 379.706 121.223 379.672 121.023C379.684 120.925 379.715 120.831 379.765 120.746C379.815 120.661 379.882 120.587 379.961 120.529L382.201 118.4C382.325 118.292 382.478 118.224 382.64 118.204C382.726 118.209 382.809 118.234 382.883 118.279C382.93 118.309 382.977 118.34 383.023 118.372Z" fill="white"/>
<path d="M398.013 118.372L398.583 118.858C398.828 119.075 399.087 119.278 399.357 119.464C399.768 119.737 400.206 119.965 400.664 120.146C401.097 120.307 401.555 120.389 402.017 120.388C402.39 120.4 402.763 120.349 403.119 120.239C403.382 120.165 403.625 120.03 403.828 119.847C403.994 119.689 404.119 119.494 404.192 119.278C404.268 119.058 404.306 118.828 404.304 118.596C404.303 118.462 404.276 118.329 404.223 118.206C404.17 118.082 404.093 117.971 403.996 117.877C403.778 117.657 403.53 117.469 403.259 117.317C402.957 117.158 402.645 117.017 402.326 116.897L401.495 116.608C400.562 116.293 399.657 115.903 398.788 115.441C398.077 115.073 397.423 114.605 396.846 114.05C396.355 113.567 395.961 112.993 395.689 112.36C395.424 111.709 395.294 111.01 395.306 110.306C395.296 109.552 395.459 108.804 395.782 108.122C396.111 107.468 396.583 106.897 397.164 106.451C397.814 105.962 398.548 105.595 399.329 105.368C400.24 105.11 401.183 104.984 402.129 104.995C402.887 104.99 403.643 105.078 404.379 105.256C405.121 105.441 405.834 105.726 406.498 106.106C406.796 106.274 407.067 106.451 407.338 106.638C407.609 106.824 407.823 107.002 408.019 107.17C408.197 107.315 408.357 107.481 408.495 107.665C408.594 107.777 408.656 107.917 408.673 108.066C408.674 108.175 408.644 108.281 408.589 108.374C408.518 108.49 408.433 108.596 408.337 108.692L406.404 110.82C406.291 110.946 406.134 111.022 405.966 111.035C405.848 111.038 405.733 111.002 405.639 110.932C405.525 110.855 405.416 110.771 405.312 110.68L405.191 110.577C405.023 110.428 404.827 110.278 404.622 110.12C404.403 109.967 404.175 109.827 403.94 109.7C403.694 109.576 403.438 109.473 403.175 109.392C402.912 109.309 402.638 109.268 402.363 109.27C402.096 109.266 401.83 109.291 401.569 109.345C401.338 109.384 401.114 109.46 400.907 109.569C400.727 109.664 400.573 109.802 400.459 109.97C400.342 110.154 400.284 110.369 400.291 110.587C400.284 110.808 400.346 111.027 400.468 111.212C400.614 111.411 400.798 111.579 401.009 111.707C401.306 111.878 401.618 112.019 401.943 112.127C402.307 112.258 402.718 112.407 403.194 112.556C404.127 112.864 404.948 113.182 405.714 113.49C406.43 113.79 407.101 114.186 407.711 114.666C408.258 115.104 408.704 115.655 409.018 116.281C409.35 116.996 409.51 117.78 409.485 118.568C409.5 119.461 409.301 120.344 408.906 121.145C408.526 121.908 407.984 122.58 407.319 123.114C406.605 123.674 405.795 124.101 404.93 124.375C403.978 124.673 402.986 124.821 401.989 124.813C400.995 124.812 400.008 124.632 399.077 124.281C398.124 123.938 397.225 123.46 396.408 122.862C396.097 122.639 395.804 122.393 395.53 122.125L394.97 121.537C394.818 121.403 394.713 121.222 394.672 121.023C394.686 120.925 394.719 120.83 394.771 120.745C394.822 120.66 394.89 120.587 394.97 120.529L397.201 118.4C397.325 118.292 397.477 118.224 397.64 118.204C397.726 118.209 397.809 118.234 397.883 118.279C397.927 118.308 397.971 118.339 398.013 118.372Z" fill="white"/>
<path d="M409.709 115.011C409.704 114.122 409.82 113.237 410.054 112.379C410.505 110.73 411.377 109.227 412.585 108.017C413.793 106.808 415.294 105.933 416.942 105.48C418.661 104.995 420.479 104.995 422.197 105.48C423.025 105.705 423.819 106.038 424.559 106.47C425.289 106.899 425.962 107.416 426.566 108.01C427.162 108.612 427.679 109.286 428.106 110.017C428.532 110.76 428.865 111.554 429.095 112.379C429.568 114.099 429.568 115.915 429.095 117.635C428.643 119.274 427.771 120.767 426.566 121.966C425.963 122.563 425.289 123.083 424.559 123.516C423.046 124.397 421.326 124.862 419.575 124.862C417.823 124.862 416.104 124.397 414.59 123.516C413.862 123.085 413.191 122.565 412.593 121.966C411.997 121.371 411.48 120.703 411.053 119.978C410.617 119.245 410.281 118.457 410.054 117.635C409.821 116.78 409.704 115.897 409.709 115.011ZM414.702 115.011C414.696 115.694 414.819 116.372 415.066 117.009C415.294 117.611 415.637 118.162 416.074 118.633C416.774 119.34 417.668 119.82 418.643 120.013C419.618 120.206 420.629 120.103 421.544 119.716C422.126 119.464 422.65 119.095 423.084 118.633C423.528 118.165 423.874 117.613 424.102 117.009C424.574 115.722 424.574 114.31 424.102 113.023C423.874 112.416 423.528 111.861 423.084 111.389C422.652 110.921 422.127 110.546 421.544 110.288C420.631 109.878 419.613 109.764 418.633 109.962C417.652 110.159 416.757 110.658 416.074 111.389C415.636 111.864 415.294 112.419 415.066 113.023C414.824 113.651 414.7 114.319 414.702 114.993V115.011ZM415.216 101.27C415.384 101.035 415.582 100.821 415.804 100.635C416.024 100.446 416.265 100.283 416.522 100.15C416.777 100.019 417.047 99.9186 417.325 99.8511C417.593 99.7803 417.869 99.7457 418.147 99.7484C418.314 99.7308 418.483 99.7308 418.651 99.7484C418.855 99.7897 419.054 99.8491 419.248 99.9258C419.463 100.019 419.705 100.131 419.967 100.271C420.289 100.432 420.601 100.612 420.9 100.813L421.171 100.953C421.271 100.983 421.374 100.999 421.479 100.999C421.636 101.005 421.791 100.966 421.927 100.887C422.053 100.816 422.167 100.725 422.263 100.617L422.692 100.094C422.714 100.048 422.747 100.009 422.789 99.9792C422.83 99.9498 422.878 99.9314 422.929 99.9258C422.979 99.9202 423.03 99.9275 423.077 99.9471C423.124 99.9667 423.165 99.9979 423.196 100.038L424.522 101.195C424.597 101.265 424.66 101.347 424.708 101.438C424.708 101.513 424.708 101.597 424.624 101.709L424.242 102.213C423.909 102.679 423.471 103.059 422.963 103.324C422.466 103.589 421.911 103.727 421.348 103.725C421.001 103.725 420.657 103.665 420.331 103.548C419.981 103.432 419.645 103.276 419.332 103.081L418.623 102.624L418.352 102.484C418.25 102.467 418.146 102.467 418.044 102.484C417.888 102.48 417.734 102.515 417.596 102.586C417.471 102.655 417.36 102.747 417.269 102.857L416.868 103.37C416.839 103.416 416.799 103.454 416.752 103.48C416.704 103.506 416.651 103.52 416.597 103.52C416.542 103.528 416.486 103.524 416.433 103.508C416.379 103.492 416.33 103.464 416.289 103.426L414.964 102.297C414.921 102.261 414.884 102.221 414.852 102.176C414.819 102.126 414.802 102.067 414.805 102.008C414.802 101.989 414.802 101.97 414.805 101.952C414.797 101.915 414.797 101.876 414.805 101.839C414.805 101.783 414.88 101.709 414.945 101.625C415.027 101.494 415.117 101.369 415.216 101.251V101.27Z" fill="white"/>
<path d="M430.663 106.003C430.658 105.843 430.711 105.687 430.813 105.564C430.868 105.511 430.934 105.469 431.006 105.442C431.079 105.414 431.156 105.402 431.233 105.405H444.03C444.111 105.401 444.191 105.413 444.267 105.442C444.343 105.471 444.411 105.516 444.468 105.574C444.574 105.698 444.627 105.859 444.618 106.022V109.214C444.618 109.367 444.565 109.516 444.468 109.634C444.413 109.701 444.343 109.753 444.263 109.787C444.184 109.821 444.097 109.836 444.011 109.83H435.61V113.032H442.163C442.305 113.027 442.445 113.066 442.564 113.144C442.62 113.192 442.664 113.253 442.692 113.321C442.719 113.389 442.73 113.463 442.723 113.536V116.337C442.718 116.465 442.668 116.587 442.583 116.682C442.532 116.74 442.468 116.785 442.397 116.814C442.326 116.843 442.249 116.856 442.172 116.85H435.629V120.155H444.3C444.38 120.144 444.461 120.152 444.538 120.178C444.614 120.204 444.683 120.247 444.74 120.303C444.797 120.36 444.84 120.43 444.866 120.506C444.891 120.582 444.899 120.663 444.888 120.743V123.992C444.887 124.034 444.877 124.076 444.86 124.114C444.842 124.153 444.817 124.187 444.786 124.216C444.748 124.459 444.571 124.58 444.254 124.58H431.186C431.036 124.587 430.889 124.537 430.775 124.44C430.72 124.388 430.676 124.324 430.649 124.253C430.621 124.182 430.61 124.105 430.617 124.029L430.663 106.003Z" fill="white"/>
<path d="M448.566 118.372L449.126 118.857C449.373 119.078 449.635 119.28 449.91 119.464C450.317 119.736 450.752 119.965 451.207 120.146C451.641 120.306 452.099 120.388 452.561 120.388C452.937 120.399 453.312 120.349 453.672 120.239C453.932 120.165 454.172 120.031 454.372 119.847C454.54 119.692 454.666 119.496 454.736 119.278C454.811 119.058 454.849 118.828 454.848 118.596C454.845 118.327 454.738 118.069 454.549 117.877C454.327 117.657 454.076 117.469 453.802 117.317C453.501 117.156 453.189 117.015 452.869 116.897L452.038 116.608C451.106 116.293 450.2 115.903 449.331 115.441C448.622 115.076 447.971 114.607 447.399 114.05C446.902 113.57 446.505 112.995 446.232 112.36C445.972 111.707 445.842 111.009 445.85 110.306C445.838 109.55 446.004 108.802 446.335 108.122C446.66 107.466 447.133 106.894 447.717 106.451C448.364 105.962 449.094 105.595 449.873 105.368C450.784 105.111 451.726 104.985 452.673 104.995C453.431 104.99 454.186 105.078 454.922 105.256C455.685 105.453 456.417 105.754 457.097 106.152C457.387 106.32 457.667 106.498 457.928 106.684C458.189 106.871 458.423 107.048 458.619 107.216C458.791 107.364 458.948 107.53 459.085 107.711C459.188 107.821 459.25 107.963 459.263 108.113C459.264 108.221 459.235 108.328 459.179 108.421C459.108 108.536 459.023 108.643 458.927 108.738L456.948 110.82C456.838 110.945 456.684 111.022 456.519 111.035C456.398 111.038 456.28 111.002 456.182 110.932L455.856 110.68L455.744 110.577C455.566 110.428 455.38 110.278 455.165 110.12C454.946 109.967 454.719 109.827 454.484 109.7C454.241 109.576 453.988 109.473 453.728 109.392C453.465 109.31 453.191 109.269 452.916 109.27C452.646 109.266 452.377 109.291 452.113 109.345C451.884 109.384 451.664 109.46 451.459 109.569C451.275 109.661 451.118 109.8 451.002 109.97C450.886 110.157 450.825 110.372 450.825 110.591C450.825 110.811 450.886 111.026 451.002 111.212C451.146 111.413 451.33 111.582 451.543 111.707C451.838 111.882 452.151 112.023 452.477 112.127C452.832 112.257 453.242 112.407 453.718 112.556C454.633 112.867 455.473 113.179 456.238 113.49C456.955 113.788 457.628 114.183 458.236 114.666C458.786 115.101 459.232 115.652 459.543 116.281C459.878 116.996 460.041 117.779 460.019 118.568C460.03 119.46 459.831 120.343 459.44 121.145C459.053 121.907 458.509 122.578 457.844 123.114C457.132 123.672 456.326 124.099 455.464 124.375C454.512 124.671 453.52 124.819 452.524 124.813C451.526 124.812 450.536 124.632 449.602 124.281C448.65 123.936 447.751 123.458 446.933 122.862C446.622 122.642 446.332 122.395 446.064 122.125L445.495 121.537C445.342 121.403 445.237 121.222 445.196 121.023C445.21 120.925 445.244 120.83 445.295 120.745C445.347 120.66 445.415 120.587 445.495 120.528L447.726 118.4C447.85 118.294 448.003 118.226 448.165 118.204C448.253 118.208 448.34 118.234 448.417 118.279C448.467 118.308 448.517 118.34 448.566 118.372Z" fill="white"/>
</g>
</g>
<defs>
<filter id="filter0_d" x="6.10352e-05" y="0.00012207" width="470" height="217" filterUnits="userSpaceOnUse" color-interpolation-filters="sRGB">
<feFlood flood-opacity="0" result="BackgroundImageFix"/>
<feColorMatrix in="SourceAlpha" type="matrix" values="0 0 0 0 0 0 0 0 0 0 0 0 0 0 0 0 0 0 127 0"/>
<feOffset/>
<feGaussianBlur stdDeviation="5"/>
<feColorMatrix type="matrix" values="0 0 0 0 0.2 0 0 0 0 0.2 0 0 0 0 0.2 0 0 0 0.4 0"/>
<feBlend mode="normal" in2="BackgroundImageFix" result="effect1_dropShadow"/>
<feBlend mode="normal" in="SourceGraphic" in2="effect1_dropShadow" result="shape"/>
</filter>
<clipPath id="clip0">
<rect x="10.0001" y="10.0001" width="450" height="197" fill="white"/>
</clipPath>
</defs>
</svg>
