<svg width="40" height="40" viewBox="0 0 40 40" fill="none" xmlns="http://www.w3.org/2000/svg">
<g clip-path="url(#clip0)">
<path d="M26.0072 0.0688617C23.288 0.0679314 20.6285 0.86427 18.3573 2.35958L15.2731 0.581148C14.9676 0.408422 14.6064 0.362837 14.2677 0.454317C13.9266 0.544246 13.6361 0.768139 13.463 1.07545L12.4648 2.80581C11.7234 2.71154 10.9729 2.71154 10.2315 2.80581L9.23728 1.08165C9.06394 0.77155 8.77182 0.544866 8.42854 0.454007C8.08712 0.361907 7.72337 0.408732 7.41668 0.584559L3.95037 2.58502C3.64461 2.76209 3.42165 3.05389 3.33141 3.39562C3.24086 3.73704 3.29017 4.10079 3.46817 4.40624L4.46576 6.13567C4.01115 6.72672 3.63686 7.37545 3.35281 8.06481H1.35328C0.617721 8.06574 0.0213969 8.66175 0.0207768 9.39731V13.3954C0.0213969 14.131 0.617721 14.727 1.35328 14.7279H3.35281C3.63717 15.4173 4.01115 16.066 4.46576 16.6571L3.47003 18.3834C3.29079 18.6892 3.24055 19.0538 3.3311 19.3965C3.42165 19.7392 3.64524 20.0316 3.95223 20.209L7.42319 22.2116C7.72833 22.3843 8.0896 22.4299 8.42854 22.3384C8.76965 22.2488 9.05991 22.0246 9.23325 21.7173L10.2315 19.9869C10.9729 20.0818 11.7234 20.0818 12.4648 19.9869L13.1746 21.2208L12.3631 22.0327C11.7615 22.6274 11.6068 23.5401 11.9789 24.2998L9.91578 26.3626C9.1548 26.015 8.25922 26.1648 7.65267 26.7409L0.58547 33.8084C0.210558 34.1833 0 34.6919 0 35.2219C0 35.7521 0.210558 36.2607 0.58547 36.6356L3.41235 39.4625C4.19349 40.2421 5.45839 40.2421 6.23954 39.4625L13.307 32.3953C13.9024 31.7962 14.0562 30.8876 13.6916 30.126L15.7485 28.0688C16.2487 28.3125 16.8286 28.3333 17.3449 28.1258V28.7206C17.3458 29.4562 17.9421 30.0525 18.6777 30.0534H20.6772C20.9613 30.7428 21.3356 31.3912 21.7902 31.9823L20.7944 33.7086C20.6152 34.0143 20.565 34.379 20.6555 34.7217C20.7461 35.0647 20.9696 35.3571 21.2766 35.5345L24.7476 37.5368C25.0527 37.7098 25.414 37.7554 25.7529 37.6636C26.0941 37.574 26.3843 37.3501 26.5577 37.0425L27.5559 35.3124C28.2973 35.4067 29.0478 35.4067 29.7892 35.3124L30.7834 37.0363C30.9567 37.3467 31.2485 37.5731 31.5921 37.6639C31.9333 37.756 32.297 37.7092 32.6037 37.5334L36.07 35.5332C36.3758 35.3558 36.5984 35.0643 36.689 34.7226C36.7795 34.3809 36.7302 34.0171 36.5522 33.712L35.5549 31.9823C36.0092 31.3912 36.3835 30.7428 36.6676 30.0534H38.6671C39.403 30.0525 39.999 29.4562 39.9999 28.7206V24.7228C39.999 23.9872 39.403 23.3909 38.6671 23.39H36.6663C36.6412 23.3283 36.6059 23.2644 36.5783 23.2017C40.1686 19.0662 41.0118 13.215 38.7356 8.23412C36.4595 3.25329 31.4836 0.0611092 26.0072 0.0688617ZM38.6671 14.0615C38.6624 18.4153 36.4192 22.4606 32.729 24.7705C32.7141 24.7814 32.6955 24.7873 32.6818 24.7991C30.1902 26.3846 27.2117 27.0206 24.2899 26.5915C24.1897 26.5453 24.0793 26.5248 23.9692 26.5319C23.9609 26.5329 23.9544 26.5378 23.9463 26.5391C17.3163 25.441 12.7014 19.3519 13.4364 12.672C14.1713 5.99209 19.9996 1.05188 26.7096 1.42152C33.4199 1.79085 38.6705 7.34134 38.6671 14.0615ZM32.6704 26.7217C32.6728 28.6791 31.256 30.3499 29.3244 30.6668C27.3928 30.9837 25.516 29.8537 24.893 27.9978C25.2617 28.0272 25.6311 28.0542 26.0072 28.0542C28.3246 28.057 30.606 27.4802 32.6437 26.3766C32.6536 26.4916 32.6704 26.6067 32.6704 26.7217ZM12.0145 14.0615C12.0145 14.487 12.0412 14.9056 12.0781 15.3215C10.5881 15.5993 9.06921 15.0098 8.15627 13.7998C7.24365 12.5898 7.09418 10.9677 7.7702 9.61097C8.44653 8.25459 9.83237 7.39747 11.3481 7.3984C12.0803 7.39902 12.7976 7.60462 13.4187 7.99193C12.4971 9.88262 12.0167 11.9581 12.0145 14.0615ZM10.002 18.6036C9.72476 18.5515 9.44474 18.6811 9.30457 18.9261L8.08309 21.0537L4.62236 19.0523L5.8485 16.9269C5.9896 16.6822 5.96107 16.3752 5.77749 16.1606C5.19078 15.479 4.73741 14.6929 4.44157 13.8438C4.34885 13.5753 4.09612 13.3954 3.81207 13.3954H1.35328V9.39731H3.81207C4.09581 9.39731 4.34823 9.21745 4.44126 8.94921C4.73741 8.10016 5.19078 7.31405 5.7778 6.63245C5.96138 6.41786 5.98991 6.11086 5.8485 5.86619L4.61833 3.73797L8.07875 1.74092L9.30488 3.86635C9.44474 4.11195 9.72476 4.24127 10.0023 4.18886C10.892 4.02699 11.804 4.02699 12.6937 4.18886C12.9709 4.24065 13.2506 4.11164 13.3914 3.86697L14.6132 1.73906L17.1783 3.21824C15.9426 4.23134 14.8879 5.44756 14.06 6.81448C13.241 6.32266 12.3036 6.06373 11.3481 6.0659C9.32845 6.05784 7.47808 7.19156 6.56794 8.99449C5.6581 10.7977 5.84509 12.9601 7.05138 14.5797C8.25736 16.1997 10.2752 16.9988 12.2636 16.6441C12.3891 17.308 12.5634 17.962 12.7848 18.6005C12.7544 18.5995 12.7241 18.6005 12.6937 18.6036C11.804 18.7654 10.8923 18.7654 10.0026 18.6036H10.002ZM14.7177 27.2148L12.8357 29.0971L11.893 28.155L10.9506 27.2126L12.8357 25.3281L12.8769 25.3694L14.7177 27.2148ZM5.29714 38.5201C5.03666 38.7803 4.61492 38.7803 4.35444 38.5201L1.52756 35.6929C1.40259 35.5683 1.3325 35.3986 1.3325 35.2222C1.3325 35.0454 1.40259 34.8758 1.52756 34.7511L2.46995 33.8087L6.23954 37.578L5.29714 38.5201ZM12.3646 31.4529L7.18162 36.6359L3.41235 32.8663L8.59506 27.6836C8.85865 27.4321 9.27325 27.4321 9.53715 27.6836L12.3643 30.5108C12.6239 30.7713 12.6239 31.1924 12.3646 31.4529ZM16.1392 26.7502L16.1333 26.7412L13.819 24.427L13.3055 23.9119C13.0472 23.6529 13.0472 23.234 13.3055 22.9751L14.4048 21.8755C15.4083 23.3599 16.6856 24.6394 18.1679 25.6457L17.0738 26.7437C16.8171 27.0027 16.3994 27.0054 16.1389 26.7502H16.1392ZM38.6671 24.7228V28.7206H36.2086C35.9249 28.7209 35.6721 28.9005 35.5791 29.1687C35.2833 30.0181 34.8302 30.8039 34.2435 31.4855C34.0596 31.7001 34.0314 32.0071 34.1725 32.2517L35.4024 34.3803L31.9419 36.3773L30.7158 34.2516C30.575 34.0072 30.2956 33.8779 30.0181 33.9291C29.1284 34.0912 28.2167 34.0912 27.327 33.9291C27.0495 33.8773 26.7698 34.0066 26.6293 34.2516L25.4075 36.3792L21.9468 34.3778L23.1729 32.252C23.314 32.0077 23.2855 31.7004 23.1019 31.4858C22.5149 30.8045 22.0618 30.0184 21.766 29.169C21.6729 28.9008 21.4202 28.7206 21.1365 28.7206H18.6777V27.0216L19.3373 26.3595C20.6254 27.0572 22.0159 27.5469 23.457 27.8102C23.8241 29.6943 25.1777 31.2349 26.9989 31.8415C28.8202 32.4483 30.8271 32.0272 32.2511 30.7397C33.6748 29.4521 34.295 27.4976 33.8742 25.6246C34.4739 25.2109 35.0405 24.751 35.5689 24.2496C35.5729 24.2614 35.5785 24.2744 35.5828 24.2859C35.6786 24.5485 35.9289 24.7231 36.2086 24.7228H38.6671Z" fill="#F29F05"/>
<path d="M14.8191 12.4905C14.8144 12.506 14.8185 12.5212 14.815 12.5367C14.3459 16.0272 15.5301 19.5372 18.0184 22.0298C18.1604 22.1715 18.3127 22.2959 18.46 22.4286C18.464 22.4339 18.4708 22.437 18.4749 22.4419C21.5445 25.2229 25.8881 26.1049 29.7994 24.7417C33.7107 23.3781 36.5649 19.9872 37.2409 15.9007C37.9166 11.8142 36.3066 7.68487 33.0425 5.1346C33.013 5.10855 32.9811 5.08499 32.9473 5.06452C29.7548 2.58464 25.4807 2.0001 21.7393 3.53138C17.9982 5.06266 15.3605 8.47625 14.8228 12.4827L14.8191 12.4905ZM24.9405 23.9462C26.4907 21.5796 29.552 20.7237 32.105 21.943C30.0639 23.5087 27.4975 24.2263 24.9405 23.9462ZM33.1743 21C31.5453 20.0567 29.6044 19.8098 27.7912 20.3156C25.9777 20.8211 24.4446 22.0363 23.5388 23.6867C22.1979 23.3459 20.9433 22.7282 19.8557 21.8732C20.1649 21.3597 20.5144 20.8713 20.9011 20.4133C21.0865 20.1993 21.1157 19.8911 20.974 19.6461L19.0805 16.3587C19.0318 16.2759 19.0182 16.1773 19.0423 16.0843C19.0668 15.9915 19.1273 15.9125 19.2104 15.8644L24.5575 12.7755C24.6409 12.7268 24.7404 12.7138 24.8341 12.7392C24.9259 12.764 25.0037 12.8251 25.0499 12.9082L26.9422 16.1934C27.0839 16.4359 27.3617 16.5649 27.6386 16.5162C29.058 16.2567 30.5127 16.2567 31.932 16.5162C32.2089 16.5662 32.4874 16.4368 32.6282 16.1934L34.5226 12.9048C34.5685 12.8229 34.6454 12.7631 34.7359 12.7389C34.8283 12.7138 34.9266 12.7265 35.0097 12.7739L35.985 13.3343C36.186 16.1736 35.1632 18.9635 33.1746 21H33.1743ZM35.722 11.6458L35.6712 11.6166C35.2823 11.3943 34.8209 11.3354 34.3886 11.4526C33.9554 11.568 33.5867 11.8529 33.3656 12.243L31.7031 15.1288C30.4311 14.9412 29.1386 14.9412 27.8666 15.1288L26.2069 12.2468C25.9858 11.8548 25.6162 11.5686 25.1814 11.4526C24.7476 11.3351 24.2849 11.3949 23.8951 11.6191L18.5425 14.7114C18.1536 14.9363 17.8702 15.3068 17.7548 15.7413C17.6394 16.1754 17.7015 16.6378 17.9275 17.026L19.5887 19.91C19.3236 20.2474 19.0758 20.5981 18.8464 20.9609C16.9318 18.98 15.9233 16.2945 16.061 13.543L17.16 13.8608C17.2983 13.8962 17.4407 13.9145 17.5836 13.9145C18.3539 13.9126 19.0253 13.3898 19.216 12.6434L20.0526 9.42392C20.6902 9.34391 21.321 9.2177 21.9402 9.04652C22.5573 8.87535 23.1614 8.66014 23.7478 8.40275L26.1157 10.7415C26.7825 11.3965 27.8526 11.3921 28.5137 10.7313L32.6437 6.54432C32.7953 6.67859 32.9501 6.80728 33.0955 6.95272C34.3864 8.24522 35.2953 9.86953 35.722 11.6458ZM18.9608 6.95272C22.3372 3.58379 27.6222 3.06654 31.5878 5.71728L27.5714 9.78859C27.5047 9.8593 27.412 9.89961 27.3149 9.90116C27.2178 9.9024 27.1242 9.86457 27.0553 9.79635L24.3568 7.13103C24.1565 6.9335 23.8539 6.88295 23.6002 7.0042C22.9521 7.31616 22.2776 7.56951 21.5849 7.76209C20.8909 7.95373 20.1807 8.08273 19.4635 8.14723C19.1834 8.17266 18.9493 8.37112 18.8786 8.64339L17.9247 12.3125C17.9021 12.404 17.8438 12.4827 17.7626 12.5311C17.6872 12.5773 17.597 12.5931 17.5101 12.5755L16.2077 12.1987C16.5705 10.2106 17.5309 8.38043 18.9608 6.95272Z" fill="#F29F05"/>
</g>
<defs>
<clipPath id="clip0">
<rect width="40" height="40" fill="white"/>
</clipPath>
</defs>
</svg>
