<svg width="50" height="50" viewBox="0 0 50 50" fill="none" xmlns="http://www.w3.org/2000/svg">
<circle cx="25" cy="25" r="24" stroke="#F29F05" stroke-width="2"/>
<path d="M25.0246 19.3281C21.8817 19.3281 19.3772 21.8817 19.3772 24.9754C19.3772 28.1183 21.8817 30.6228 25.0246 30.6228C28.1183 30.6228 30.6719 28.1183 30.6719 24.9754C30.6719 21.8817 28.1183 19.3281 25.0246 19.3281ZM25.0246 28.6585C23.0112 28.6585 21.3415 27.0379 21.3415 24.9754C21.3415 22.9621 22.9621 21.3415 25.0246 21.3415C27.0379 21.3415 28.6585 22.9621 28.6585 24.9754C28.6585 27.0379 27.0379 28.6585 25.0246 28.6585ZM32.1942 19.1317C32.1942 18.3951 31.6049 17.8058 30.8683 17.8058C30.1317 17.8058 29.5424 18.3951 29.5424 19.1317C29.5424 19.8683 30.1317 20.4576 30.8683 20.4576C31.6049 20.4576 32.1942 19.8683 32.1942 19.1317ZM35.9263 20.4576C35.8281 18.6897 35.4353 17.1183 34.1585 15.8415C32.8817 14.5647 31.3103 14.1719 29.5424 14.0737C27.7254 13.9754 22.2746 13.9754 20.4576 14.0737C18.6897 14.1719 17.1674 14.5647 15.8415 15.8415C14.5647 17.1183 14.1719 18.6897 14.0737 20.4576C13.9754 22.2746 13.9754 27.7254 14.0737 29.5424C14.1719 31.3103 14.5647 32.8326 15.8415 34.1585C17.1674 35.4353 18.6897 35.8281 20.4576 35.9263C22.2746 36.0246 27.7254 36.0246 29.5424 35.9263C31.3103 35.8281 32.8817 35.4353 34.1585 34.1585C35.4353 32.8326 35.8281 31.3103 35.9263 29.5424C36.0246 27.7254 36.0246 22.2746 35.9263 20.4576ZM33.5692 31.4576C33.2254 32.4397 32.4397 33.1763 31.5067 33.5692C30.0335 34.1585 26.596 34.0112 25.0246 34.0112C23.404 34.0112 19.9665 34.1585 18.5424 33.5692C17.5603 33.1763 16.8237 32.4397 16.4308 31.4576C15.8415 30.0335 15.9888 26.596 15.9888 24.9754C15.9888 23.404 15.8415 19.9665 16.4308 18.4933C16.8237 17.5603 17.5603 16.8237 18.5424 16.4308C19.9665 15.8415 23.404 15.9888 25.0246 15.9888C26.596 15.9888 30.0335 15.8415 31.5067 16.4308C32.4397 16.7746 33.1763 17.5603 33.5692 18.4933C34.1585 19.9665 34.0112 23.404 34.0112 24.9754C34.0112 26.596 34.1585 30.0335 33.5692 31.4576Z" fill="#F29F05"/>
</svg>
