<svg width="32" height="32" viewBox="0 0 32 32" fill="none" xmlns="http://www.w3.org/2000/svg">
<g clip-path="url(#clip0)">
<path d="M31.1601 24.6861L24.6832 20.3668C23.8613 19.823 22.7595 20.0019 22.1519 20.7779L20.2652 23.2037C20.0227 23.5234 19.582 23.6161 19.2312 23.4213L18.8723 23.2234C17.6826 22.5749 16.2024 21.7676 13.2199 18.7841C10.2374 15.8005 9.42843 14.3191 8.77996 13.1316L8.58318 12.7727C8.38564 12.422 8.47663 11.9794 8.79646 11.735L11.2206 9.84889C11.9962 9.24117 12.1754 8.13971 11.6323 7.31752L7.31293 0.840606C6.75632 0.00335491 5.63962 -0.247983 4.77793 0.270003L2.06952 1.89695C1.21852 2.39725 0.594177 3.2075 0.327404 4.15793C-0.647889 7.71152 0.0858141 13.8445 9.12022 22.88C16.3069 30.0661 21.6571 31.9986 25.3344 31.9986C26.1807 32.0022 27.0237 31.8921 27.8407 31.6712C28.7913 31.4048 29.6017 30.7803 30.1017 29.9291L31.7302 27.2223C32.249 26.3604 31.9978 25.243 31.1601 24.6861ZM30.8114 26.6751L29.1866 29.3836C28.8275 29.998 28.2447 30.4497 27.5601 30.6442C24.2795 31.5449 18.5481 30.7988 9.87474 22.1254C1.20134 13.452 0.455385 7.72115 1.35606 4.44007C1.55078 3.75467 2.00309 3.17107 2.61825 2.8115L5.32666 1.18668C5.70054 0.961713 6.18522 1.07076 6.42675 1.43408L8.77309 4.95674L10.7424 7.91043C10.9783 8.26707 10.9008 8.74506 10.5643 9.00896L8.13962 10.8951C7.40173 11.4593 7.19101 12.4802 7.64532 13.2904L7.83785 13.6403C8.51938 14.8902 9.36669 16.4452 12.4601 19.5381C15.5535 22.6309 17.108 23.4783 18.3574 24.1598L18.7077 24.3528C19.5179 24.807 20.5388 24.5964 21.1031 23.8585L22.9892 21.4338C23.2531 21.0975 23.7309 21.0201 24.0877 21.2557L30.564 25.5751C30.9276 25.8164 31.0367 26.3013 30.8114 26.6751Z" fill="#F29F05" stroke="#F29F05" stroke-width="0.5"/>
<path d="M18.1324 5.336C23.1368 5.34156 27.1921 9.39702 27.1978 14.4013C27.1978 14.6959 27.4365 14.9346 27.731 14.9346C28.0255 14.9346 28.2642 14.6959 28.2642 14.4013C28.2581 8.80823 23.7255 4.27566 18.1324 4.26953C17.8379 4.26953 17.5992 4.50825 17.5992 4.80276C17.5992 5.09728 17.8379 5.336 18.1324 5.336Z" fill="#F29F05" stroke="#F29F05" stroke-width="0.5"/>
<path d="M18.1324 8.5357C21.3705 8.53952 23.9944 11.1635 23.9982 14.4015C23.9982 14.696 24.237 14.9348 24.5315 14.9348C24.826 14.9348 25.0647 14.696 25.0647 14.4015C25.0603 10.5747 21.9592 7.47361 18.1324 7.46924C17.8379 7.46924 17.5992 7.70795 17.5992 8.00247C17.5992 8.29699 17.8379 8.5357 18.1324 8.5357Z" fill="#F29F05" stroke="#F29F05" stroke-width="0.5"/>
<path d="M18.1324 11.7349C19.6042 11.7367 20.7969 12.9294 20.7987 14.4012C20.7987 14.6957 21.0375 14.9344 21.332 14.9344C21.6264 14.9344 21.8652 14.6957 21.8652 14.4012C21.8628 12.3406 20.193 10.6708 18.1324 10.6685C17.8379 10.6685 17.5992 10.9072 17.5992 11.2017C17.5992 11.4962 17.8379 11.7349 18.1324 11.7349Z" fill="#F29F05" stroke="#F29F05" stroke-width="0.5"/>
</g>
<defs>
<clipPath id="clip0">
<rect width="32" height="32" fill="white"/>
</clipPath>
</defs>
</svg>
