<svg width="32" height="32" viewBox="0 0 32 32" fill="none" xmlns="http://www.w3.org/2000/svg">
<path fill-rule="evenodd" clip-rule="evenodd" d="M26.6117 5.34412C23.805 2.53418 20.0724 0.986023 16.0959 0.984375C7.90195 0.984375 1.23325 7.65289 1.22995 15.8491C1.22885 18.4691 1.9133 21.0267 3.21426 23.2811L1.10526 30.9844L8.98593 28.9171C11.1574 30.1016 13.602 30.7258 16.0899 30.7266H16.0961C24.2892 30.7266 30.9586 24.0575 30.9617 15.861C30.9633 11.8887 29.4185 8.15387 26.6117 5.34412ZM16.0959 28.216H16.0908C13.8737 28.2151 11.6994 27.6193 9.80203 26.4937L9.35104 26.2258L4.67453 27.4526L5.92276 22.8931L5.62888 22.4257C4.392 20.4584 3.73886 18.1846 3.73996 15.85C3.74252 9.03754 9.28549 3.49512 16.1009 3.49512C19.4012 3.49622 22.5035 4.78308 24.8363 7.11859C27.169 9.4541 28.453 12.5585 28.4519 15.86C28.4489 22.673 22.9063 28.216 16.0959 28.216ZM22.8734 18.962C22.502 18.776 20.6757 17.8777 20.3352 17.7535C19.995 17.6296 19.747 17.5679 19.4997 17.9396C19.2519 18.3113 18.5402 19.1481 18.3234 19.3958C18.1066 19.6437 17.8902 19.6749 17.5186 19.4888C17.1471 19.303 15.9503 18.9106 14.5315 17.6451C13.4273 16.6602 12.6819 15.4438 12.4651 15.0721C12.2487 14.7001 12.4633 14.5184 12.6281 14.3141C13.0302 13.8148 13.4328 13.2913 13.5566 13.0435C13.6806 12.7956 13.6185 12.5786 13.5255 12.3928C13.4328 12.2069 12.69 10.3786 12.3805 9.63464C12.0788 8.91064 11.7728 9.00842 11.5446 8.99707C11.3282 8.98627 11.0805 8.98407 10.8327 8.98407C10.5852 8.98407 10.1827 9.0769 9.84213 9.44897C9.50174 9.82086 8.54227 10.7194 8.54227 12.5477C8.54227 14.376 9.87326 16.1422 10.0589 16.3901C10.2446 16.6381 12.6783 20.3899 16.4043 21.9987C17.2905 22.3817 17.9823 22.61 18.5219 22.7812C19.4118 23.064 20.2213 23.024 20.8614 22.9285C21.5752 22.8217 23.0589 22.0298 23.3687 21.1622C23.6781 20.2945 23.6781 19.5509 23.5851 19.3958C23.4925 19.2409 23.2447 19.1481 22.8734 18.962Z" fill="#F29F05"/>
</svg>
